<svg width="112" height="56" viewBox="0 0 112 56" fill="none" xmlns="http://www.w3.org/2000/svg">
<g clip-path="url(#clip0_1611_13475)">
<path fill-rule="evenodd" clip-rule="evenodd" d="M16.5392 31.7412C13.4732 31.7949 11.5177 30.5839 11.381 27.9147C11.3298 26.9129 11.346 26.0549 11.3948 25.4118C11.6916 21.5108 14.1491 18.9844 16.8514 18.4457C20.2131 17.7756 22.4525 19.3069 22.4525 23.6912C22.4525 26.6539 21.6268 31.6524 16.5392 31.7412ZM42.8564 37.824C39.2167 37.824 35.3914 35.5858 35.2102 31.3977C31.0709 35.778 24.6886 37.8651 16.5392 37.8651C8.31952 37.8651 4.88644 32.2611 4.88644 27.8959C5.09429 13.3439 4.76212 7.89243 4.69394 6.77337C4.6879 6.67436 4.68394 6.60926 4.6826 6.57478L4.68115 6.53687C4.66013 5.98343 4.62872 5.1564 4.10244 5.10002C3.77568 5.06502 3.56456 5.16498 3.1888 5.63286C2.62544 6.3813 1.4878 6.67782 0.795915 6.2777C-0.0401649 5.79414 -0.196125 4.7265 0.226955 3.74398C1.401 1.12402 3.28316 -0.0351802 5.8194 0.000939759C10.2017 0.0633798 11.4589 2.92554 11.4589 6.50114C11.4589 6.50114 11.3614 11.652 11.3614 14.5525C12.9118 13.2892 15.1893 11.9343 18.9937 11.9343C26.9152 11.9343 31.944 21.741 26.7766 31.1238C33.398 28.07 34.7818 22.8107 35.0396 17.5883C35.0248 16.5064 35.0153 15.821 35.0153 15.821C35.0153 13.8434 36.291 12.1684 38.2765 12.1684C40.262 12.1684 41.5808 13.9571 41.5102 15.8451C41.2719 22.2034 41.1756 26.3885 41.1756 28.6028C41.1756 29.8846 41.8748 31.8485 43.9445 31.8485C47.9968 31.8485 49.3289 28.6729 49.6434 21.2089C49.6599 18.4253 49.6744 16.0991 49.6744 16.0991C47.8376 16.0991 46.9329 15.1342 46.9329 13.9285C46.9329 12.7226 47.8905 11.607 49.4625 11.607C49.4625 11.607 49.4655 7.41377 49.4655 5.67721C49.4655 3.69929 51.0005 2.05933 52.986 2.05933C54.9717 2.05933 56.5484 3.69929 56.5484 5.67721C56.5484 6.33324 56.5233 7.09831 56.4957 7.94338C56.4602 9.02438 56.4205 10.2363 56.4235 11.5183C56.4601 11.5179 56.5581 11.5175 56.7113 11.517C57.2495 11.5151 58.4679 11.5109 60.0884 11.492C62.0193 11.4693 62.8058 12.5478 62.8058 13.8983C62.8058 15.2487 61.7662 16.1912 60.4107 16.1968C59.1544 16.2018 56.3793 16.1864 56.3793 16.1864C56.253 20.186 56.1337 25.0079 56.1337 28.8665C56.1337 30.2581 57.0941 31.8485 59.4187 31.8485C64.1079 31.8485 65.859 27.6809 66.2108 19.7708C66.1834 14.2669 66.1177 11.078 66.0682 8.67479C66.0335 6.98929 66.0067 5.69029 66.0067 4.25022C66.0067 2.27258 67.6534 0.504658 69.6386 0.504658C71.6246 0.504658 73.0893 2.09198 73.0893 4.06962C73.0893 5.59319 73.0281 7.37414 72.9447 9.80322V9.80347C72.8036 13.9112 72.5989 19.8724 72.5187 29.5765C72.508 30.8684 73.1386 31.7784 74.8121 31.7784C79.2836 31.7784 80.5231 26.9347 80.9167 20.1696C80.9191 19.8438 80.9221 19.525 80.925 19.2119C80.931 18.5699 80.9368 17.9518 80.9368 17.3464C80.9368 15.3687 82.2542 13.768 84.2403 13.768C86.2258 13.768 87.3931 15.4079 87.3931 17.3856C87.3931 18.7945 87.3471 20.1122 87.2997 21.4717V21.4718V21.4719V21.4719C87.2578 22.6721 87.2148 23.9049 87.2013 25.2617C87.1666 28.753 88.3594 31.8285 91.2649 31.8201C94.0543 31.812 97.1178 30.6377 97.1922 24.6577C97.213 22.995 97.1893 21.7179 97.1653 20.429V20.4287V20.4285V20.4283C97.1476 19.4743 97.1298 18.5138 97.1298 17.3856C97.1298 15.4079 98.508 13.768 100.494 13.768C102.479 13.768 103.858 15.4079 103.858 17.3856C103.858 18.5681 103.815 19.7459 103.767 21.0514C103.708 22.6743 103.641 24.4947 103.641 26.767C103.641 26.767 103.519 35.0494 103.81 36.8825C104.721 36.5793 106.035 35.6889 107.428 33.5309C108.268 32.2281 109.875 31.9489 110.865 32.5257C112.229 33.3201 112.18 34.8724 111.67 36.0064C110.354 38.9338 108.643 40.7255 104.317 42.2084C104.33 47.1739 103.984 54.4996 94.8041 55.8237C86.942 56.9574 83.3857 52.3979 83.374 48.5182C83.3552 42.3921 89.4774 40.6079 98.3142 38.3828L98.0308 35.3467C98.0308 35.3467 96.0627 37.9275 91.0754 37.8029C87.2285 37.7067 84.5821 35.8902 82.9772 33.3245C81.1256 36.3653 78.2237 37.8368 73.8518 37.8368C70.9717 37.8368 68.2272 36.3155 66.8681 34.1101C64.8639 36.5077 62.0689 37.8052 58.3127 37.8052C55.0396 37.8052 52.6214 36.6751 51.1731 34.9112C49.3047 36.9993 46.6133 37.824 42.8564 37.824ZM98.8921 43.2707C94.4253 44.2348 88.8295 45.6426 88.8944 48.3933C88.9555 50.9727 91.6188 51.442 93.839 50.9833C98.4503 50.0302 98.9859 47.2554 98.8921 43.2707ZM41.8965 5.68732C41.8965 3.69064 40.2756 2.07644 38.2714 2.07644C36.2669 2.07644 34.6462 3.69064 34.6462 5.68732C34.6462 7.68372 36.2669 9.2982 38.2714 9.2982C40.2756 9.2982 41.8965 7.68372 41.8965 5.68732Z" fill="#FF6116"/>
</g>
<defs>
<clipPath id="clip0_1611_13475">
<rect width="112" height="56" fill="white"/>
</clipPath>
</defs>
</svg>
