<?xml version="1.0" encoding="UTF-8"?> <svg xmlns="http://www.w3.org/2000/svg" width="29" height="36" viewBox="0 0 29 36" fill="none"><g id="icon"><path id="Vector" d="M24.6746 34.6789C24.3746 34.6789 24.3746 34.6873 24.0746 34.6873C23.7746 34.6873 23.7746 34.6789 23.4746 34.6789C23.1746 34.6789 23.1746 34.7206 22.8663 34.7206C22.5579 34.7206 22.5663 34.6956 22.2579 34.6956C21.9496 34.6956 21.9579 34.6539 21.6496 34.6539C21.3413 34.6539 21.3496 34.7456 21.0413 34.7456C20.7329 34.7456 20.7413 34.7123 20.4329 34.7123C20.1246 34.7123 20.1329 34.7123 19.8246 34.7123C19.5163 34.7123 19.5246 34.5956 19.2163 34.5956C18.9079 34.5956 18.9163 34.5956 18.6079 34.5956C18.2996 34.5956 18.3079 34.7206 17.9996 34.7206C17.6913 34.7206 17.6996 34.7456 17.3913 34.7456C17.0829 34.7456 17.0913 34.7206 16.7829 34.7206C16.4746 34.7206 16.4829 34.6789 16.1746 34.6789C15.8663 34.6789 15.8746 34.7289 15.5746 34.7289C15.2746 34.7289 15.2746 34.6623 14.9746 34.6623C14.6746 34.6623 14.6746 34.5956 14.3746 34.5956C14.0746 34.5956 14.0746 34.6789 13.7663 34.6789C13.4579 34.6789 13.4663 34.6456 13.1579 34.6456C12.8496 34.6456 12.8579 34.6789 12.5496 34.6789C12.2413 34.6789 12.2496 34.7206 11.9413 34.7206C11.6329 34.7206 11.6413 34.6706 11.3329 34.6706C11.0246 34.6706 11.0329 34.7039 10.7246 34.7039C10.4163 34.7039 10.4246 34.5789 10.1163 34.5789C9.80794 34.5789 9.81627 34.7039 9.50794 34.7039C9.19961 34.7039 9.19961 34.7206 8.89961 34.7206C8.59961 34.7206 8.59961 34.6373 8.29128 34.6373C7.98294 34.6373 7.99128 34.6956 7.68294 34.6956C7.37461 34.6956 7.38294 34.6956 7.07461 34.6956C6.76628 34.6956 6.76628 34.5789 6.46628 34.5789C6.16628 34.5789 6.15794 34.5789 5.85794 34.5789C5.55794 34.5789 5.54961 34.6873 5.24961 34.6873C4.94961 34.6873 4.94128 34.5956 4.64128 34.5956C4.44128 34.5956 4.25794 34.5789 4.07461 34.5456C3.89128 34.5123 3.69128 34.4956 3.51628 34.4289C3.34128 34.3623 3.15794 34.2956 2.99128 34.1956C2.82461 34.0956 2.69128 33.9539 2.54961 33.8373C2.40794 33.7206 2.20794 33.6373 2.08294 33.4873C1.95794 33.3373 1.83294 33.1873 1.73294 33.0206C1.63294 32.8539 1.49961 32.6956 1.43294 32.5123C1.36628 32.3289 1.35794 32.1206 1.32461 31.9289C1.29128 31.7373 1.33294 31.5456 1.33294 31.3456C1.33294 31.0456 1.36628 31.0456 1.36628 30.7456C1.36628 30.4456 1.22461 30.4456 1.22461 30.1456C1.22461 29.8456 1.36628 29.8456 1.36628 29.5373C1.36628 29.2289 1.36628 29.2373 1.36628 28.9289C1.36628 28.6206 1.25794 28.6289 1.25794 28.3206C1.25794 28.0123 1.22461 28.0206 1.22461 27.7123C1.22461 27.4039 1.24961 27.4123 1.24961 27.1039C1.24961 26.7956 1.24961 26.8039 1.24961 26.5039C1.24961 26.2039 1.24961 26.2039 1.24961 25.9039C1.24961 25.6039 1.37461 25.6039 1.37461 25.3039C1.37461 25.0039 1.32461 25.0039 1.32461 24.7039C1.32461 24.4039 1.27461 24.4039 1.27461 24.1039C1.27461 23.8039 1.35794 23.8039 1.35794 23.4956C1.35794 23.1873 1.28294 23.1956 1.28294 22.8873C1.28294 22.5789 1.28294 22.5873 1.28294 22.2789C1.28294 21.9706 1.36628 21.9789 1.36628 21.6706C1.36628 21.3623 1.38294 21.3706 1.38294 21.0623C1.38294 20.7539 1.27461 20.7623 1.27461 20.4539C1.27461 20.1456 1.38294 20.1539 1.38294 19.8456C1.38294 19.5373 1.35794 19.5456 1.35794 19.2373C1.35794 18.9289 1.22461 18.9373 1.22461 18.6289C1.22461 18.3206 1.24961 18.3289 1.24961 18.0206C1.24961 17.7123 1.23294 17.7206 1.23294 17.4123C1.23294 17.1039 1.23294 17.1123 1.23294 16.8039C1.23294 16.4956 1.27461 16.5039 1.27461 16.1956C1.27461 15.8873 1.23294 15.8956 1.23294 15.5956C1.23294 15.2956 1.24128 15.2956 1.24128 14.9956C1.24128 14.6956 1.30794 14.6956 1.30794 14.3956C1.30794 14.0956 1.27461 14.0956 1.27461 13.7873C1.27461 13.4789 1.29961 13.4873 1.29961 13.1789C1.29961 12.8706 1.23294 12.8789 1.23294 12.5706C1.23294 12.2623 1.26628 12.2706 1.26628 11.9623C1.26628 11.6539 1.34961 11.6623 1.34961 11.3539C1.34961 11.0456 1.34961 11.0456 1.34961 10.7456C1.34961 10.4456 1.25794 10.4456 1.25794 10.1373C1.25794 9.82894 1.30794 9.83727 1.30794 9.52894C1.30794 9.2206 1.24961 9.22061 1.24961 8.92061C1.24961 8.62061 1.28294 8.61227 1.28294 8.31227C1.28294 8.01227 1.23294 8.01227 1.23294 7.70394C1.23294 7.39561 1.37461 7.40394 1.37461 7.0956C1.37461 6.78727 1.32461 6.78727 1.32461 6.48727C1.32461 6.18727 1.24128 6.17894 1.24128 5.87894C1.24128 5.57894 1.35794 5.57061 1.35794 5.26227C1.35794 4.95394 1.30794 4.95394 1.30794 4.64561C1.30794 4.44561 1.29961 4.25394 1.33294 4.06227C1.36628 3.87061 1.41628 3.67894 1.47461 3.49561C1.53294 3.31227 1.62461 3.12894 1.71628 2.96227C1.80794 2.79561 1.98294 2.67061 2.10794 2.52894C2.23294 2.38727 2.32461 2.19561 2.46628 2.07061C2.60794 1.94561 2.78294 1.83727 2.94961 1.73727C3.11628 1.63727 3.29961 1.55394 3.48294 1.48727C3.66628 1.42061 3.85794 1.39561 4.05794 1.36227C4.25794 1.32894 4.44128 1.26227 4.64128 1.26227C4.94128 1.26227 4.94128 1.37894 5.24128 1.37894C5.54128 1.37894 5.54128 1.27894 5.84128 1.27894C6.14128 1.27894 6.14128 1.35394 6.44961 1.35394C6.75794 1.35394 6.74961 1.28727 7.05794 1.28727C7.36628 1.28727 7.35794 1.28727 7.66628 1.28727C7.97461 1.28727 7.96628 1.27061 8.27461 1.27061C8.58294 1.27061 8.57461 1.40394 8.88294 1.40394C9.19127 1.40394 9.18294 1.37061 9.49128 1.37061C9.79961 1.37061 9.79128 1.27894 10.0996 1.27894C10.4079 1.27894 10.3996 1.26227 10.7079 1.26227C11.0163 1.26227 11.0079 1.40394 11.3163 1.40394C11.6246 1.40394 11.6163 1.37061 11.9246 1.37061C12.2329 1.37061 12.2246 1.39561 12.5329 1.39561C12.8413 1.39561 12.8329 1.27894 13.1413 1.27894C13.4496 1.27894 13.4413 1.37061 13.7413 1.37061C14.0413 1.37061 14.0413 1.37061 14.3413 1.37061C14.6413 1.37061 14.6413 1.29561 14.9413 1.29561C15.2413 1.29561 15.2413 1.31227 15.5496 1.31227C15.8579 1.31227 15.8496 1.27061 16.1579 1.27061C16.4663 1.27061 16.4579 1.40394 16.7663 1.40394C17.0746 1.40394 17.0663 1.26227 17.3746 1.26227C17.6829 1.26227 17.6746 1.33727 17.9829 1.33727C18.2913 1.33727 18.2829 1.39561 18.5913 1.39561C18.8996 1.39561 18.8913 1.35394 19.1996 1.35394C19.5079 1.35394 19.4996 1.31227 19.8079 1.31227C20.1163 1.31227 20.1163 1.29561 20.4163 1.29561C20.7163 1.29561 20.7163 1.35394 21.0246 1.35394C21.3329 1.35394 21.3246 1.29561 21.6329 1.29561C21.9413 1.29561 21.9329 1.34561 22.2413 1.34561C22.5496 1.34561 22.5496 1.34561 22.8496 1.34561C23.1496 1.34561 23.1579 1.24561 23.4579 1.24561C23.7579 1.24561 23.7663 1.26227 24.0663 1.26227C24.3663 1.26227 24.3746 1.37894 24.6746 1.37894C24.8746 1.37894 25.0663 1.34561 25.2579 1.37894C25.4496 1.41227 25.6329 1.47894 25.8163 1.54561C25.9996 1.61227 26.2163 1.61227 26.3829 1.71227C26.5496 1.81227 26.6579 2.00394 26.8079 2.12894C26.9579 2.25394 27.0829 2.39561 27.2079 2.54561C27.3329 2.69561 27.4246 2.85394 27.5246 3.02894C27.6246 3.20394 27.7079 3.36227 27.7746 3.54561C27.8413 3.72894 27.8746 3.91227 27.9079 4.10394C27.9413 4.29561 28.0413 4.47894 28.0413 4.67061C28.0413 4.97061 27.9663 4.97061 27.9663 5.27061C27.9663 5.57061 27.9996 5.5706 27.9996 5.8706C27.9996 6.1706 27.9996 6.17061 27.9996 6.47894C27.9996 6.78727 27.9996 6.77894 27.9996 7.08727C27.9996 7.3956 28.0329 7.38727 28.0329 7.69561C28.0329 8.00394 28.0246 7.9956 28.0246 8.30394C28.0246 8.61227 27.9746 8.60394 27.9746 8.91227C27.9746 9.2206 28.0746 9.21227 28.0746 9.51227C28.0746 9.81227 28.0996 9.81227 28.0996 10.1123C28.0996 10.4123 28.0746 10.4123 28.0746 10.7123C28.0746 11.0123 27.9746 11.0123 27.9746 11.3123C27.9746 11.6123 27.9913 11.6123 27.9913 11.9123C27.9913 12.2123 28.0996 12.2123 28.0996 12.5206C28.0996 12.8289 28.0329 12.8206 28.0329 13.1289C28.0329 13.4373 27.9829 13.4289 27.9829 13.7373C27.9829 14.0456 28.0246 14.0373 28.0246 14.3456C28.0246 14.6539 28.0579 14.6456 28.0579 14.9539C28.0579 15.2623 28.0579 15.2539 28.0579 15.5623C28.0579 15.8706 28.0079 15.8623 28.0079 16.1706C28.0079 16.4789 28.0246 16.4706 28.0246 16.7789C28.0246 17.0873 28.0579 17.0789 28.0579 17.3873C28.0579 17.6956 28.0579 17.6873 28.0579 17.9956C28.0579 18.3039 27.9913 18.2956 27.9913 18.6039C27.9913 18.9123 28.0996 18.9039 28.0996 19.2123C28.0996 19.5206 27.9996 19.5123 27.9996 19.8206C27.9996 20.1289 28.0579 20.1206 28.0579 20.4206C28.0579 20.7206 28.0246 20.7206 28.0246 21.0206C28.0246 21.3206 28.0246 21.3206 28.0246 21.6206C28.0246 21.9206 27.9663 21.9206 27.9663 22.2289C27.9663 22.5373 28.0663 22.5289 28.0663 22.8373C28.0663 23.1456 28.0163 23.1373 28.0163 23.4456C28.0163 23.7539 28.0413 23.7456 28.0413 24.0539C28.0413 24.3623 28.0913 24.3539 28.0913 24.6623C28.0913 24.9706 28.0413 24.9706 28.0413 25.2706C28.0413 25.5706 28.0996 25.5706 28.0996 25.8789C28.0996 26.1873 28.0329 26.1789 28.0329 26.4873C28.0329 26.7956 28.0913 26.7956 28.0913 27.0956C28.0913 27.3956 28.0079 27.4039 28.0079 27.7039C28.0079 28.0039 28.0913 28.0039 28.0913 28.3123C28.0913 28.6206 28.1079 28.6123 28.1079 28.9206C28.1079 29.2289 28.1079 29.2289 28.1079 29.5289C28.1079 29.8289 28.0246 29.8373 28.0246 30.1373C28.0246 30.4373 27.9829 30.4456 27.9829 30.7539C27.9829 31.0623 27.9829 31.0623 27.9829 31.3706C27.9829 31.5706 27.9663 31.7539 27.9413 31.9373C27.9163 32.1206 27.8663 32.3123 27.7996 32.4873C27.7329 32.6623 27.7079 32.8706 27.6163 33.0373C27.5246 33.2039 27.3329 33.3123 27.2079 33.4539C27.0829 33.5956 26.9913 33.7789 26.8413 33.9039C26.6913 34.0289 26.5746 34.1956 26.3996 34.2956C26.2246 34.3956 26.0496 34.4873 25.8663 34.5539C25.6829 34.6206 25.4829 34.6706 25.2913 34.7039C25.0996 34.7373 24.8996 34.6956 24.6996 34.6956L24.6746 34.6789Z" fill="#F36600"></path><path id="Vector_2" d="M17.4167 35.3873C17.2417 35.3873 17.1501 35.3873 17.0667 35.3707C17.0001 35.3707 16.9417 35.3623 16.8167 35.3623C16.6251 35.3623 16.5251 35.3457 16.4334 35.3373C16.3334 35.3207 16.1251 35.3207 16.0167 35.3373C15.9167 35.354 15.8167 35.3707 15.6084 35.3707C15.4001 35.3707 15.2834 35.3457 15.1667 35.3207C14.9584 35.2707 14.7251 35.2873 14.5667 35.254C14.4667 35.229 14.4001 35.2207 14.2751 35.254C14.1584 35.2873 14.0167 35.3207 13.8001 35.3207C13.6167 35.3207 13.5251 35.3123 13.4334 35.304C13.3167 35.2957 13.0834 35.2873 12.9667 35.304C12.8667 35.3123 12.7751 35.329 12.5834 35.329C12.4751 35.329 12.4251 35.329 12.3667 35.3457C12.2667 35.3623 12.1751 35.3707 11.9751 35.3707C11.7751 35.3707 11.6751 35.354 11.5751 35.3373C11.4667 35.3207 11.2417 35.3207 11.1334 35.3373C11.0417 35.3457 10.9501 35.354 10.7584 35.354C10.5001 35.354 10.3417 35.2957 10.2167 35.2457L10.1251 35.229C9.96673 35.2957 9.80007 35.354 9.55007 35.354C9.41673 35.354 9.34173 35.354 9.27507 35.354C9.19173 35.354 9.1084 35.354 8.94173 35.354C8.71673 35.354 8.5834 35.3207 8.4584 35.2873C8.32507 35.2457 8.22507 35.2707 8.15007 35.2873C8.04173 35.304 7.94173 35.329 7.72507 35.329H7.11673C6.86673 35.329 6.7084 35.279 6.5834 35.229L5.90007 35.204C5.86673 35.204 5.8334 35.2096 5.80007 35.2207C5.66673 35.2623 5.52506 35.3123 5.2834 35.3123C5.0584 35.3123 4.91673 35.279 4.80007 35.2457C4.74173 35.229 4.7334 35.229 4.67507 35.229C4.4584 35.229 4.24173 35.2123 4.00007 35.1707L3.8834 35.154C3.69173 35.1207 3.5084 35.0873 3.3334 35.029C3.1334 34.954 2.91673 34.8707 2.7084 34.7457C2.5334 34.6457 2.40007 34.5207 2.2834 34.4123L2.17507 34.3123C2.17507 34.3123 2.09173 34.254 2.05007 34.229C1.92507 34.1457 1.76673 34.0457 1.6334 33.8873C1.50007 33.729 1.35007 33.5457 1.22507 33.329C1.20007 33.2873 1.16673 33.2373 1.14173 33.1957C1.0584 33.0707 0.950065 32.9123 0.883398 32.7123C0.816732 32.5207 0.791732 32.3373 0.766732 32.1707L0.741732 32.0123C0.708399 31.8123 0.716732 31.629 0.733399 31.4873C0.733399 31.429 0.741732 31.379 0.741732 31.3207C0.741732 31.1373 0.750065 31.0457 0.758399 30.954C0.758399 30.8957 0.766732 30.8373 0.766732 30.7123C0.691732 30.5457 0.625065 30.379 0.625065 30.1123C0.625065 29.8457 0.691732 29.6707 0.758399 29.529V28.8957C0.758399 28.8957 0.766732 28.854 0.758399 28.804C0.716732 28.679 0.666732 28.529 0.666732 28.2873C0.666732 28.1707 0.666732 28.1123 0.650065 28.0623C0.641732 27.9707 0.625065 27.8707 0.625065 27.6873C0.625065 27.5123 0.625065 27.4207 0.641732 27.329C0.641732 27.2707 0.650065 27.204 0.650065 27.079V26.479V25.879C0.650065 25.629 0.708399 25.4707 0.758399 25.3373C0.775065 25.1707 0.758399 25.1207 0.758399 25.0707C0.741732 24.9707 0.725065 24.8707 0.725065 24.6707C0.725065 24.5707 0.725065 24.5207 0.708398 24.4707C0.691732 24.3707 0.675065 24.2707 0.675065 24.0623C0.675065 23.8457 0.708399 23.704 0.741732 23.5873C0.758399 23.529 0.758399 23.5207 0.758399 23.454C0.758399 23.379 0.758399 23.3623 0.741732 23.304C0.708399 23.1873 0.683399 23.0623 0.683399 22.8457V22.2373C0.683399 22.0207 0.716732 21.879 0.750065 21.7623C0.766732 21.704 0.766732 21.6957 0.766732 21.629C0.766732 21.4623 0.766732 21.379 0.766732 21.2957C0.766732 21.229 0.766732 21.1623 0.766732 21.0207C0.766732 21.0207 0.761176 20.9901 0.750065 20.929C0.708399 20.804 0.658398 20.654 0.658398 20.4123C0.658398 20.1707 0.700065 20.0207 0.750065 19.8957C0.761176 19.8623 0.766732 19.8346 0.766732 19.8123C0.766732 19.6873 0.766732 19.6207 0.758399 19.5623C0.758399 19.4707 0.741732 19.3873 0.741732 19.204C0.675065 19.0207 0.608398 18.8623 0.608398 18.5957C0.608398 18.4207 0.608398 18.329 0.625065 18.2457C0.625065 18.179 0.633399 18.1207 0.633399 17.9873C0.633399 17.854 0.633399 17.7873 0.633399 17.7207C0.633399 17.6373 0.625065 17.554 0.625065 17.379V16.7707C0.625065 16.579 0.641732 16.479 0.658398 16.379C0.658398 16.329 0.675065 16.2707 0.675065 16.1623C0.675065 16.054 0.675065 16.004 0.658398 15.954C0.641732 15.854 0.633399 15.754 0.633399 15.5623C0.633399 15.404 0.633399 15.3207 0.633399 15.2373C0.633399 15.1707 0.633399 15.0957 0.633399 14.9623C0.633399 14.7623 0.658398 14.6457 0.675065 14.529C0.683398 14.4707 0.691732 14.4457 0.691732 14.3623C0.691732 14.2457 0.691732 14.1873 0.683399 14.1207C0.675065 14.029 0.666732 13.9373 0.666732 13.754C0.666732 13.5707 0.666732 13.479 0.683399 13.3957C0.683399 13.3373 0.691732 13.2707 0.691732 13.154C0.691732 13.0707 0.691732 13.0373 0.675065 12.979C0.650065 12.8623 0.633399 12.7457 0.633399 12.5457C0.633399 12.3623 0.641732 12.2707 0.650065 12.179C0.650065 12.1207 0.658398 12.0623 0.658398 11.9457C0.658398 11.729 0.691732 11.5873 0.725065 11.4707C0.741732 11.4123 0.741732 11.404 0.741732 11.3373V10.729C0.741732 10.6707 0.741732 10.6707 0.725065 10.6123C0.683399 10.4873 0.650065 10.3457 0.650065 10.1207C0.650065 9.91234 0.666732 9.81234 0.683399 9.71234C0.683399 9.66234 0.700065 9.61234 0.700065 9.51234C0.700065 9.42067 0.691732 9.37901 0.683399 9.32901C0.666732 9.22067 0.641732 9.11234 0.641732 8.90401C0.641732 8.71234 0.650065 8.62067 0.666732 8.52067C0.666732 8.46234 0.683399 8.40401 0.683399 8.29567C0.683399 8.19567 0.683399 8.13734 0.666732 8.08734C0.650065 7.98734 0.633399 7.88734 0.633399 7.68734C0.633399 7.42067 0.700065 7.254 0.758399 7.11234C0.766732 6.979 0.758399 6.929 0.758399 6.879C0.741732 6.779 0.725065 6.67067 0.725065 6.46234C0.725065 6.39567 0.725065 6.38734 0.708398 6.329C0.675065 6.204 0.641732 6.07067 0.641732 5.84567C0.641732 5.579 0.700065 5.41234 0.741732 5.32067C0.752843 5.28734 0.758399 5.25956 0.758399 5.23734C0.758399 5.13734 0.758399 5.08734 0.741732 5.03734C0.725065 4.93734 0.708398 4.829 0.708398 4.629V4.51234C0.708398 4.31234 0.708399 4.12067 0.741732 3.929C0.783399 3.67067 0.841732 3.454 0.916732 3.254C1.0084 3.01234 1.10007 2.804 1.2084 2.62067C1.3084 2.43734 1.44173 2.31234 1.55007 2.204C1.5834 2.17067 1.62507 2.129 1.6584 2.08734C1.69173 2.04567 1.71673 2.004 1.75007 1.96234C1.8334 1.83734 1.94173 1.68734 2.10007 1.554C2.2584 1.42067 2.45007 1.28734 2.67507 1.16234C2.89173 1.03734 3.10006 0.937337 3.3084 0.862337C3.49173 0.795671 3.69173 0.762337 3.8834 0.729004L4.1334 0.679004C4.2834 0.645671 4.46673 0.604004 4.67507 0.604004C4.92507 0.604004 5.07507 0.654004 5.2084 0.704004C5.3334 0.720671 5.3334 0.720671 5.39173 0.704004C5.51673 0.662337 5.6584 0.629004 5.89173 0.629004C6.10007 0.629004 6.22507 0.654004 6.34173 0.679004C6.4584 0.704004 6.54173 0.704004 6.6584 0.679004C6.77507 0.654004 6.90007 0.629004 7.1084 0.629004H7.39173C7.47507 0.629004 7.55007 0.629004 7.7084 0.629004C7.84173 0.629004 7.9084 0.629004 7.97507 0.629004C8.0584 0.629004 8.14173 0.620671 8.31673 0.620671C8.57507 0.620671 8.74173 0.679004 8.87507 0.737337C9.04173 0.754004 9.09173 0.737337 9.1584 0.737337C9.2834 0.720671 9.42507 0.770671 9.65007 0.695671C9.77507 0.662337 9.9084 0.620671 10.1334 0.620671C10.2917 0.637337 10.3417 0.620671 10.4084 0.620671C10.4917 0.620671 10.5751 0.612337 10.7417 0.612337C11.0084 0.612337 11.1834 0.679004 11.3167 0.745671C11.4667 0.754004 11.5251 0.745671 11.5917 0.745671C11.6834 0.737337 11.7751 0.729004 11.9584 0.729004C12.1417 0.729004 12.2251 0.729004 12.3167 0.745671C12.3751 0.745671 12.4417 0.754004 12.5584 0.754004C12.7501 0.687337 12.9084 0.637337 13.1667 0.637337C13.3917 0.637337 13.5334 0.670671 13.6584 0.712337C13.7084 0.729004 13.7167 0.729004 13.7667 0.729004H14.3667C14.4417 0.729004 14.4667 0.729004 14.5167 0.712337C14.6334 0.687337 14.7584 0.662337 14.9667 0.662337C15.1334 0.662337 15.2167 0.662337 15.3001 0.670671C15.4167 0.670671 15.6584 0.679004 15.7834 0.662337C15.8834 0.645671 15.9834 0.629004 16.1834 0.629004C16.4501 0.629004 16.6167 0.695671 16.7501 0.754004C16.9584 0.695671 17.1251 0.629004 17.3917 0.629004C17.6001 0.629004 17.7251 0.654004 17.8417 0.687337C17.9001 0.704004 17.9167 0.704004 17.9917 0.704004C18.2001 0.704004 18.3084 0.720671 18.4167 0.745671C18.5167 0.762337 18.7167 0.762337 18.8167 0.745671C18.9167 0.729004 19.0167 0.720671 19.2084 0.720671C19.3167 0.720671 19.3751 0.720671 19.4251 0.704004C19.5251 0.687337 19.6167 0.679004 19.8084 0.679004C19.9501 0.679004 20.0167 0.679004 20.0834 0.679004C20.1667 0.679004 20.2501 0.679004 20.4167 0.679004C20.6334 0.679004 20.7417 0.704004 20.8501 0.720671C20.9417 0.737337 21.1167 0.737337 21.2084 0.720671C21.3167 0.695671 21.4251 0.679004 21.6417 0.679004C21.8417 0.679004 21.9417 0.695671 22.0417 0.712337C22.0917 0.712337 22.1417 0.729004 22.2501 0.729004H22.8584C22.9084 0.729004 22.9084 0.729004 22.9584 0.712337C23.0834 0.670671 23.2334 0.629004 23.4667 0.629004C23.6417 0.629004 23.7251 0.629004 23.8084 0.637337C23.8751 0.637337 23.9417 0.637337 24.0751 0.637337C24.3417 0.637337 24.5084 0.695671 24.6084 0.737337C24.7417 0.754004 24.8001 0.754004 24.8501 0.745671C24.9917 0.737337 25.1834 0.720671 25.3751 0.762337C25.6251 0.804004 25.8417 0.887337 26.0334 0.954004C26.0834 0.970671 26.1334 0.979004 26.1751 0.987337C26.3251 1.02067 26.5167 1.054 26.7001 1.17067C26.8917 1.279 27.0251 1.429 27.1167 1.54567C27.1501 1.579 27.1751 1.62067 27.2167 1.654C27.4084 1.81234 27.5584 1.98734 27.6917 2.14567C27.8417 2.329 27.9501 2.51234 28.0501 2.679C28.1751 2.89567 28.2834 3.09567 28.3751 3.329C28.4584 3.554 28.5001 3.76234 28.5334 3.99567C28.5334 4.03734 28.5584 4.08734 28.5751 4.129C28.6167 4.26234 28.6751 4.454 28.6751 4.67067C28.6751 4.88734 28.6501 5.004 28.6167 5.129C28.6001 5.18734 28.6001 5.204 28.6001 5.279C28.6001 5.39567 28.6001 5.454 28.6167 5.51234C28.6251 5.604 28.6334 5.69567 28.6334 5.88734C28.6334 6.04567 28.6334 6.129 28.6334 6.204V7.09567C28.6251 7.21234 28.6334 7.27067 28.6334 7.329C28.6417 7.42067 28.6501 7.51234 28.6501 7.70401C28.6501 7.87067 28.6501 7.954 28.6501 8.029C28.6501 8.09567 28.6501 8.17067 28.6501 8.304C28.6501 8.504 28.6334 8.604 28.6167 8.70401C28.6167 8.75401 28.6001 8.804 28.6001 8.90401C28.6001 8.95401 28.6001 8.95401 28.6167 9.004C28.6584 9.129 28.7001 9.27067 28.7001 9.50401C28.7001 9.62901 28.7001 9.68734 28.7084 9.74567C28.7084 9.83734 28.7251 9.92067 28.7251 10.104C28.7251 10.2873 28.7251 10.3623 28.7084 10.454C28.7084 10.5207 28.7001 10.579 28.7001 10.7123C28.7001 10.9457 28.6584 11.0873 28.6167 11.2123C28.6001 11.2623 28.6001 11.2623 28.6001 11.3123C28.6001 11.4457 28.6001 11.504 28.6001 11.5707C28.6001 11.654 28.6084 11.7457 28.6084 11.9123C28.6084 11.9123 28.614 11.9401 28.6251 11.9957C28.6751 12.129 28.7167 12.2707 28.7167 12.5123C28.7167 12.7123 28.6917 12.829 28.6751 12.9457C28.6667 13.004 28.6584 13.029 28.6584 13.1207C28.6584 13.3207 28.6417 13.429 28.6251 13.529C28.6251 13.579 28.6084 13.629 28.6084 13.729C28.6084 13.8373 28.6084 13.8957 28.6251 13.954C28.6417 14.054 28.6501 14.1457 28.6501 14.3373C28.6501 14.454 28.6501 14.504 28.6667 14.5623C28.6751 14.654 28.6917 14.754 28.6917 14.9457V15.554C28.6917 15.754 28.6751 15.8623 28.6584 15.9623C28.6584 16.0123 28.6417 16.0623 28.6417 16.1623C28.6417 16.2957 28.6417 16.3707 28.6417 16.4373C28.6417 16.5207 28.6417 16.604 28.6417 16.7707C28.6417 16.8873 28.6417 16.9457 28.6501 17.004C28.6584 17.0957 28.6667 17.1873 28.6667 17.3707V17.979C28.6667 18.1873 28.6417 18.304 28.6167 18.4207C28.6001 18.479 28.6001 18.504 28.6001 18.579C28.6001 18.6068 28.6056 18.6373 28.6167 18.6707C28.6584 18.7957 28.7084 18.9457 28.7084 19.1873C28.7084 19.429 28.6667 19.5623 28.6251 19.6873C28.6084 19.7373 28.6084 19.7373 28.6084 19.7873C28.6084 19.879 28.6084 19.929 28.6251 19.9707C28.6417 20.0707 28.6584 20.179 28.6584 20.3873C28.6584 20.5707 28.6501 20.6623 28.6417 20.754C28.6417 20.8123 28.6334 20.8707 28.6334 20.9873V21.5873C28.6334 21.7957 28.6084 21.904 28.5917 22.0123C28.5917 22.0623 28.5751 22.104 28.5751 22.1957C28.5751 22.2457 28.5751 22.2457 28.5917 22.2957C28.6334 22.4207 28.6751 22.5623 28.6751 22.804C28.6751 23.004 28.6584 23.104 28.6417 23.204C28.6417 23.254 28.6251 23.304 28.6251 23.404C28.6251 23.529 28.6251 23.5957 28.6334 23.6623C28.6334 23.7457 28.6501 23.8373 28.6501 24.0123C28.6501 24.104 28.6501 24.154 28.6667 24.204C28.6834 24.304 28.7001 24.4123 28.7001 24.6207C28.7001 24.829 28.6834 24.9207 28.6667 25.0207C28.6667 25.0707 28.6501 25.1207 28.6501 25.229C28.6501 25.3207 28.6584 25.3707 28.6667 25.4123C28.6834 25.5207 28.7084 25.6207 28.7084 25.829C28.7084 26.0373 28.6834 26.1623 28.6584 26.279C28.6417 26.3373 28.6417 26.3623 28.6417 26.4373C28.6417 26.5373 28.6501 26.579 28.6584 26.629C28.6751 26.729 28.6917 26.8373 28.6917 27.0457C28.6917 27.2707 28.6584 27.404 28.6251 27.5207C28.6084 27.579 28.6084 27.5873 28.6084 27.654C28.6084 27.7207 28.6084 27.729 28.6251 27.7873C28.6584 27.904 28.6917 28.0457 28.6917 28.2623C28.6917 28.3957 28.6917 28.4707 28.6917 28.5373C28.6917 28.6207 28.6917 28.704 28.6917 28.8707V29.479C28.6917 29.7123 28.6501 29.854 28.6251 29.9457C28.6084 30.004 28.6084 30.0207 28.6084 30.0873C28.6084 30.279 28.6001 30.379 28.5834 30.4707C28.5834 30.529 28.5667 30.5873 28.5667 30.6957V31.3123C28.5667 31.5623 28.5501 31.779 28.5084 31.9957C28.4667 32.2457 28.4084 32.454 28.3334 32.6623C28.3167 32.7123 28.3001 32.7623 28.2917 32.8123C28.2584 32.954 28.2084 33.129 28.1084 33.3123C28.0001 33.504 27.8501 33.6373 27.7417 33.729C27.7084 33.7623 27.6667 33.7873 27.6417 33.829C27.6084 33.8707 27.5751 33.9123 27.5501 33.954C27.4667 34.0707 27.3584 34.2207 27.2001 34.354C27.1584 34.3873 27.1251 34.429 27.0834 34.4623C26.9751 34.5707 26.8501 34.704 26.6667 34.804C26.5001 34.904 26.2751 35.0207 26.0334 35.1123C25.8251 35.1873 25.5917 35.254 25.3501 35.2957C25.1501 35.329 24.9667 35.3123 24.8167 35.304C24.6167 35.2873 24.4667 35.304 24.3751 35.304C24.2084 35.304 23.8834 35.304 23.7167 35.304C23.5917 35.304 23.3501 35.304 23.2334 35.3123C23.1334 35.329 23.0334 35.3457 22.8417 35.3457C22.6584 35.3457 22.5667 35.3373 22.4751 35.329C22.4167 35.329 22.3584 35.3207 22.2334 35.3207C22.0417 35.3207 21.9417 35.3123 21.8501 35.2957C21.7667 35.2873 21.6751 35.254 21.5167 35.2957C21.3917 35.329 21.2584 35.3707 21.0251 35.3707C20.8417 35.3707 20.7501 35.3623 20.6584 35.354C20.6001 35.354 20.5417 35.3457 20.4167 35.3457H19.8084C19.5584 35.3457 19.4084 35.2873 19.2834 35.2457H18.9251C18.8417 35.2373 18.7667 35.2457 18.6084 35.2457C18.4167 35.3123 18.2584 35.3707 18.0001 35.3707C17.8751 35.3707 17.8084 35.3707 17.7501 35.379C17.6584 35.379 17.5751 35.3957 17.3917 35.3957L17.4167 35.3873ZM16.2084 34.0457C16.4001 34.0457 16.5001 34.0623 16.5917 34.0707C16.6501 34.0707 16.7001 34.0873 16.8084 34.0873C16.9834 34.0873 17.0751 34.0873 17.1667 34.104C17.2917 34.1123 17.5417 34.1123 17.6667 34.104C17.7584 34.104 17.8417 34.0873 18.0251 34.0873C18.2167 34.0207 18.3751 33.9623 18.6334 33.9623H18.9167C19.0001 33.9623 19.0751 33.9623 19.2334 33.9623C19.4834 33.9623 19.6334 34.0123 19.7667 34.0623L20.4501 34.079C20.6334 34.079 20.7251 34.0873 20.8167 34.0957C20.9084 34.0957 21.0084 34.1373 21.1751 34.0957C21.3001 34.0623 21.4334 34.0207 21.6667 34.0207C21.8584 34.0207 21.9584 34.029 22.0501 34.0457C22.1084 34.0457 22.1584 34.0623 22.2751 34.0623C22.4584 34.0623 22.5501 34.0707 22.6417 34.079C22.7501 34.0873 22.9834 34.0957 23.0917 34.079C23.1917 34.0623 23.2917 34.0457 23.4917 34.0457C23.6584 34.0457 23.7334 34.0457 23.8167 34.0457C23.9584 34.0457 24.2334 34.0457 24.3667 34.0457C24.4917 34.0457 24.7084 34.029 24.9584 34.0457C25.0417 34.0457 25.1334 34.0623 25.1751 34.0457C25.3334 34.0207 25.4917 33.979 25.6334 33.9207C25.7834 33.8623 25.9334 33.7873 26.0667 33.704C26.0917 33.6873 26.1584 33.6207 26.2084 33.5707C26.2751 33.504 26.3417 33.429 26.4167 33.3707C26.4501 33.3457 26.5001 33.2707 26.5501 33.204C26.6001 33.1373 26.6501 33.0623 26.7084 32.9957C26.7834 32.9123 26.8584 32.8373 26.9501 32.7623C26.9917 32.729 27.0417 32.679 27.0584 32.6623C27.0751 32.6373 27.0917 32.554 27.1167 32.4873C27.1417 32.3957 27.1667 32.304 27.1917 32.2207C27.2417 32.0707 27.2834 31.929 27.3084 31.7707C27.3334 31.6207 27.3417 31.4707 27.3417 31.3123V30.6957C27.3417 30.504 27.3584 30.404 27.3667 30.3123C27.3667 30.254 27.3834 30.1957 27.3834 30.0873C27.3834 29.854 27.4167 29.7123 27.4417 29.6207C27.4584 29.5623 27.4584 29.5457 27.4584 29.479V28.8707C27.4584 28.7373 27.4584 28.6623 27.4584 28.5957C27.4584 28.5123 27.4584 28.429 27.4584 28.2623C27.4584 28.1957 27.4584 28.1873 27.4417 28.129C27.4084 28.0123 27.3751 27.8707 27.3751 27.654C27.3751 27.4373 27.4084 27.2957 27.4417 27.179C27.4584 27.1207 27.4584 27.1123 27.4584 27.0457C27.4584 26.9457 27.4501 26.904 27.4417 26.854C27.4251 26.754 27.4084 26.6457 27.4084 26.4373C27.4084 26.229 27.4334 26.104 27.4584 25.9873C27.4751 25.929 27.4751 25.904 27.4751 25.829C27.4751 25.7373 27.4667 25.6873 27.4584 25.6373C27.4417 25.529 27.4167 25.429 27.4167 25.2207C27.4167 25.0123 27.4334 24.9207 27.4501 24.8207C27.4501 24.7707 27.4667 24.7207 27.4667 24.6123C27.4667 24.5207 27.4667 24.4707 27.4501 24.4207C27.4334 24.3207 27.4167 24.2123 27.4167 24.004C27.4167 23.879 27.4167 23.8123 27.4084 23.7457C27.4084 23.6623 27.3917 23.5707 27.3917 23.3957C27.3917 23.1957 27.4084 23.0957 27.4251 22.9957C27.4251 22.9457 27.4417 22.8957 27.4417 22.7957C27.4417 22.7457 27.4417 22.7457 27.4251 22.6957C27.3834 22.5707 27.3417 22.429 27.3417 22.1873C27.3417 21.979 27.3584 21.8707 27.3834 21.7623C27.3834 21.7123 27.4001 21.6707 27.4001 21.579V20.979C27.4001 20.7957 27.4167 20.704 27.4251 20.6123C27.4251 20.554 27.4334 20.4957 27.4334 20.379C27.4334 20.2873 27.4334 20.2373 27.4167 20.1957C27.4001 20.0957 27.3834 19.9873 27.3834 19.779C27.3834 19.5457 27.4251 19.404 27.4667 19.279C27.4834 19.229 27.4834 19.229 27.4834 19.179C27.4834 19.1512 27.4778 19.1207 27.4667 19.0873C27.4251 18.9623 27.3751 18.8123 27.3751 18.5707C27.3751 18.3623 27.4001 18.2457 27.4251 18.129C27.4417 18.0707 27.4417 18.0457 27.4417 17.9707V17.3623C27.4417 17.2457 27.4417 17.1873 27.4334 17.129C27.4251 17.0373 27.4167 16.9457 27.4167 16.7623C27.4167 16.629 27.4167 16.554 27.4167 16.4873C27.4167 16.404 27.4167 16.3207 27.4167 16.154C27.4167 15.954 27.4334 15.8457 27.4501 15.7457C27.4501 15.6957 27.4667 15.6457 27.4667 15.5457V14.9373C27.4667 14.8207 27.4667 14.7707 27.4501 14.7123C27.4417 14.6207 27.4251 14.5207 27.4251 14.329C27.4251 14.2207 27.4251 14.1623 27.4084 14.104C27.3917 14.004 27.3834 13.9123 27.3834 13.7207C27.3834 13.5207 27.4001 13.4123 27.4167 13.3123C27.4167 13.2623 27.4334 13.2123 27.4334 13.1123C27.4334 12.9123 27.4584 12.7957 27.4751 12.679C27.4834 12.6207 27.4917 12.5957 27.4917 12.504C27.4917 12.504 27.4862 12.4762 27.4751 12.4207C27.4251 12.2873 27.3834 12.1457 27.3834 11.904C27.3834 11.7707 27.3834 11.7123 27.3834 11.6457C27.3834 11.5623 27.3751 11.4707 27.3751 11.304C27.3751 11.0707 27.4167 10.929 27.4584 10.804C27.4751 10.754 27.4751 10.754 27.4751 10.704C27.4751 10.529 27.4751 10.4457 27.4917 10.354C27.4917 10.2873 27.5001 10.229 27.5001 10.0957C27.5001 9.96234 27.5001 9.91234 27.4917 9.854C27.4917 9.76234 27.4751 9.679 27.4751 9.49567C27.4751 9.44567 27.4751 9.44567 27.4584 9.39567C27.4167 9.27067 27.3751 9.129 27.3751 8.89567C27.3751 8.69567 27.3917 8.59567 27.4084 8.49567C27.4084 8.44567 27.4251 8.39567 27.4251 8.29567C27.4251 8.12901 27.4251 8.04567 27.4251 7.97067C27.4251 7.90401 27.4251 7.829 27.4251 7.69567C27.4251 7.579 27.4251 7.52067 27.4084 7.46234C27.4001 7.37067 27.3917 7.279 27.3917 7.08734V6.479C27.3917 6.32067 27.3917 6.23734 27.4001 6.16234V5.879C27.4001 5.76234 27.4001 5.704 27.3917 5.64567C27.3834 5.554 27.3751 5.46234 27.3751 5.27067C27.3751 5.06234 27.4001 4.93734 27.4334 4.81234C27.4501 4.754 27.4501 4.73734 27.4501 4.66234C27.4501 4.63734 27.4251 4.56234 27.4084 4.504C27.3751 4.404 27.3501 4.304 27.3251 4.204C27.3001 4.04567 27.2751 3.89567 27.2251 3.754C27.1667 3.604 27.0917 3.47067 27.0167 3.33734C26.9251 3.179 26.8584 3.054 26.7667 2.94567C26.6667 2.829 26.5667 2.71234 26.4417 2.61234C26.3584 2.53734 26.2751 2.454 26.2001 2.37067C26.1667 2.33734 26.1167 2.279 26.1001 2.26234C26.0917 2.26234 26.0167 2.24567 25.9584 2.229C25.8501 2.204 25.7417 2.179 25.6334 2.14567C25.4834 2.09567 25.3417 2.03734 25.1834 2.01234C25.1334 2.01234 25.0417 2.01234 24.9584 2.01234C24.6167 2.03734 24.3084 1.97067 24.1834 1.92067C23.9334 1.904 23.8417 1.89567 23.7584 1.89567C23.6917 1.89567 23.6251 1.89567 23.4917 1.89567C23.4417 1.89567 23.4417 1.89567 23.3917 1.91234C23.2667 1.954 23.1167 1.99567 22.8834 1.99567H22.2751C22.0751 1.99567 21.9751 1.979 21.8751 1.96234C21.7834 1.94567 21.5917 1.94567 21.4917 1.96234C21.3834 1.98734 21.2751 2.004 21.0584 2.004C20.8417 2.004 20.7334 1.979 20.6251 1.96234C20.5084 1.93734 20.2834 1.94567 20.1751 1.954C20.0917 1.954 20.0084 1.954 19.8417 1.954C19.7334 1.954 19.6751 1.954 19.6251 1.97067C19.5251 1.98734 19.4334 1.99567 19.2417 1.99567C19.1334 1.99567 19.0834 1.99567 19.0251 2.01234C18.9251 2.029 18.8251 2.03734 18.6334 2.03734C18.4251 2.03734 18.3167 2.02067 18.2084 1.99567C18.1667 1.98734 18.1167 1.979 18.0251 1.979C17.8167 1.979 17.6917 1.954 17.5751 1.92067C17.5167 1.904 17.5001 1.904 17.4251 1.904C17.2584 1.979 17.0917 2.04567 16.8251 2.04567C16.5584 2.04567 16.3917 1.979 16.2584 1.92067C16.1084 1.91234 16.0584 1.92067 16.0084 1.92067C15.9084 1.93734 15.8084 1.954 15.6084 1.954C15.4417 1.954 15.3584 1.954 15.2751 1.94567C15.1667 1.94567 15.0084 1.92067 14.8501 1.954C14.7334 1.979 14.6084 2.004 14.4001 2.004H13.8001C13.5751 2.004 13.4334 1.96234 13.3084 1.929C13.2584 1.91234 13.2501 1.91234 13.2001 1.91234C13.0084 1.979 12.8501 2.029 12.5917 2.029C12.4084 2.029 12.3251 2.029 12.2334 2.01234C12.1167 2.004 11.8667 2.004 11.7501 2.01234C11.6584 2.02067 11.5667 2.029 11.3834 2.029C11.1084 2.029 10.9417 1.96234 10.8084 1.89567C10.6417 1.88734 10.5751 1.89567 10.5084 1.89567C10.4251 1.89567 10.3417 1.904 10.1751 1.904C10.1084 1.91234 10.1084 1.904 10.0584 1.92067C9.9334 1.954 9.80007 1.99567 9.57506 1.99567C9.4584 1.99567 9.40007 1.99567 9.34173 2.01234C9.25007 2.02067 9.1584 2.029 8.96673 2.029C8.7084 2.029 8.54173 1.97067 8.4084 1.91234C8.22507 1.904 8.1584 1.904 8.09173 1.91234C8.0084 1.91234 7.92507 1.92067 7.75007 1.92067H7.46673C7.35007 1.92067 7.16673 1.904 6.99173 1.94567C6.87507 1.97067 6.75007 1.99567 6.54173 1.99567C6.3334 1.99567 6.2084 1.97067 6.09173 1.94567C6.00007 1.92067 5.96673 1.904 5.82507 1.94567C5.70007 1.98734 5.5584 2.02067 5.32507 2.02067C5.07507 2.02067 4.92507 1.97067 4.79173 1.92067C4.65007 1.904 4.5584 1.92067 4.45006 1.94567C4.3834 1.96234 4.3084 1.979 4.24173 1.98734L4.12507 2.004C4.0084 2.02067 3.8834 2.03734 3.77507 2.079C3.62507 2.129 3.4834 2.204 3.35007 2.28734C3.21673 2.36234 3.07506 2.454 2.9584 2.554C2.9334 2.579 2.8834 2.654 2.84173 2.704C2.79173 2.78734 2.7334 2.86234 2.67507 2.93734C2.61673 3.01234 2.55007 3.079 2.4834 3.14567C2.4334 3.19567 2.36673 3.254 2.35007 3.28734C2.27507 3.42067 2.2084 3.57067 2.15007 3.72067C2.10007 3.87067 2.0584 4.02067 2.0334 4.179C2.01673 4.28734 2.01673 4.404 2.01673 4.52067V4.64567C2.01673 4.74567 2.02507 4.79567 2.0334 4.84567C2.05007 4.94567 2.06673 5.054 2.06673 5.254C2.06673 5.52067 2.0084 5.68734 1.96673 5.779C1.95562 5.81234 1.95006 5.84012 1.95006 5.86234C1.95006 5.929 1.95007 5.93734 1.96673 5.99567C2.00007 6.12067 2.0334 6.254 2.0334 6.479C2.0334 6.579 2.0334 6.629 2.05007 6.679C2.06673 6.779 2.0834 6.88734 2.0834 7.09567C2.0834 7.36234 2.01673 7.52901 1.9584 7.67067C1.95007 7.81234 1.9584 7.86234 1.9584 7.91234C1.97507 8.01234 1.99173 8.11234 1.99173 8.31234C1.99173 8.51234 1.9834 8.59567 1.96673 8.69567C1.96673 8.754 1.95006 8.81234 1.95006 8.92067C1.95006 9.01234 1.9584 9.054 1.96673 9.104C1.9834 9.21234 2.0084 9.32067 2.0084 9.52901C2.0084 9.73734 1.99173 9.83734 1.97507 9.93734C1.97507 9.98734 1.9584 10.0373 1.9584 10.1373C1.9584 10.1957 1.9584 10.1957 1.97507 10.254C2.01673 10.379 2.05007 10.5207 2.05007 10.7457V11.354C2.05007 11.5707 2.01673 11.7123 1.9834 11.829C1.96673 11.8873 1.96673 11.8957 1.96673 11.9623C1.96673 12.1457 1.9584 12.2373 1.95006 12.329C1.95006 12.3873 1.94173 12.4457 1.94173 12.5707C1.94173 12.654 1.94173 12.6873 1.9584 12.7457C1.9834 12.8623 2.00007 12.979 2.00007 13.179C2.00007 13.3623 2.00007 13.454 1.9834 13.5373C1.9834 13.5957 1.97507 13.6623 1.97507 13.779C1.97507 13.8957 1.97507 13.954 1.9834 14.0207C1.99173 14.1123 2.00007 14.204 2.00007 14.3873C2.00007 14.5873 1.97507 14.704 1.9584 14.8207C1.95007 14.879 1.94173 14.904 1.94173 14.9873C1.94173 15.1457 1.94173 15.229 1.94173 15.3123C1.94173 15.379 1.94173 15.454 1.94173 15.5873C1.94173 15.6873 1.94173 15.7457 1.9584 15.7957C1.97507 15.8957 1.9834 15.9957 1.9834 16.1873C1.9834 16.379 1.96673 16.479 1.9584 16.579C1.9584 16.629 1.94173 16.6873 1.94173 16.7957V17.404C1.94173 17.5373 1.94173 17.604 1.94173 17.6707C1.94173 17.754 1.95006 17.8373 1.95006 18.0123C1.95006 18.1873 1.95007 18.279 1.9334 18.3623C1.9334 18.429 1.92507 18.4873 1.92507 18.6207C1.99173 18.804 2.0584 18.9623 2.0584 19.229C2.0584 19.354 2.0584 19.4207 2.06673 19.479C2.06673 19.5707 2.0834 19.654 2.0834 19.829C2.0834 20.0707 2.04173 20.2207 1.99173 20.3457C1.98062 20.379 1.97507 20.4068 1.97507 20.429C1.97507 20.429 1.97506 20.4707 1.99173 20.5207C2.0334 20.6457 2.0834 20.7957 2.0834 21.0373C2.0834 21.204 2.0834 21.2873 2.0834 21.3707C2.0834 21.4373 2.0834 21.504 2.0834 21.6457C2.0834 21.8623 2.05007 22.004 2.01673 22.1207C2.00007 22.179 2.00007 22.1873 2.00007 22.254V22.8623C2.00007 22.9373 2.00007 22.954 2.01673 23.0123C2.05007 23.129 2.07507 23.254 2.07507 23.4707C2.07507 23.6873 2.04173 23.829 2.0084 23.9457C1.99173 24.004 1.99173 24.0123 1.99173 24.079C1.99173 24.179 1.99173 24.229 2.0084 24.279C2.02507 24.379 2.04173 24.479 2.04173 24.6873C2.04173 24.7873 2.04173 24.8373 2.0584 24.8873C2.07507 24.9873 2.09173 25.0873 2.09173 25.2873C2.09173 25.5373 2.0334 25.6957 1.9834 25.829L1.96673 26.4957V27.0957C1.96673 27.2707 1.96673 27.3623 1.9584 27.454C1.9584 27.5123 1.95006 27.579 1.95006 27.704C1.95006 27.8207 1.95007 27.879 1.96673 27.929C1.97507 28.0207 1.99173 28.1207 1.99173 28.304C1.99173 28.304 1.99729 28.3346 2.0084 28.3957C2.05007 28.529 2.10007 28.6707 2.10007 28.9123V29.5207C2.10007 29.7957 2.0334 29.9623 1.96673 30.104C2.0334 30.2957 2.10007 30.4623 2.10007 30.729C2.10007 30.9123 2.09173 31.004 2.0834 31.0957C2.0834 31.154 2.07507 31.2123 2.07507 31.3373C2.07507 31.429 2.07507 31.5123 2.0584 31.604C2.0584 31.679 2.04173 31.7707 2.0584 31.8123C2.06673 31.8873 2.0834 31.954 2.09173 32.029C2.10006 32.129 2.11673 32.229 2.14173 32.2873C2.1584 32.3373 2.21673 32.4207 2.26673 32.504C2.3084 32.5707 2.35007 32.6373 2.39173 32.704C2.46673 32.8373 2.57507 32.9623 2.67507 33.0873C2.69173 33.104 2.7584 33.1457 2.8084 33.179C2.90007 33.2373 2.9834 33.2957 3.0584 33.3623L3.2084 33.4873C3.29173 33.5623 3.3584 33.6207 3.41673 33.654C3.55007 33.729 3.69173 33.7873 3.84173 33.8373C3.94173 33.8707 4.05007 33.8873 4.1584 33.904L4.30007 33.929C4.45007 33.954 4.60007 33.9707 4.7584 33.9707C4.9834 33.9707 5.12507 34.004 5.24173 34.0373C5.34173 34.0623 5.34173 34.079 5.46673 34.0373C5.60007 33.9957 5.74173 33.9457 5.9834 33.9457H6.59173C6.84173 33.9457 7.00007 34.004 7.12507 34.054L7.8084 34.0707C7.90007 34.0707 7.95007 34.0623 7.99173 34.054C8.10007 34.0373 8.20007 34.0123 8.41673 34.0123C8.64173 34.0123 8.77507 34.0457 8.90007 34.079C9.07507 34.129 9.20006 34.0957 9.30007 34.0873C9.3834 34.0873 9.46673 34.0873 9.6334 34.0873C9.82507 34.0207 9.9834 33.9623 10.2417 33.9623C10.5001 33.9623 10.6584 34.0207 10.7834 34.0707C10.9667 34.0873 11.0251 34.0707 11.0834 34.0707C11.1751 34.0623 11.2667 34.054 11.4584 34.054C11.6584 34.054 11.7584 34.0707 11.8584 34.0873C11.9667 34.104 12.1751 34.104 12.2834 34.0873C12.3834 34.0707 12.4751 34.0623 12.6751 34.0623C12.7834 34.0623 12.8417 34.0623 12.9001 34.0457C13.0001 34.0373 13.0917 34.0207 13.2834 34.0207C13.4751 34.0207 13.5584 34.029 13.6501 34.0373C13.7417 34.0457 13.8584 34.079 14.0251 34.0373C14.1417 34.004 14.2834 33.9707 14.5001 33.9707C14.7084 33.9707 14.8251 33.9957 14.9417 34.0207C15.1501 34.0707 15.3834 34.054 15.5417 34.0873C15.6751 34.1123 15.8084 34.104 15.9001 34.0873C16.0001 34.0707 16.1001 34.054 16.3084 34.054L16.2084 34.0457Z" fill="#031F39"></path><path id="Vector_3" d="M22.5921 22.1455C22.3921 22.1455 22.1893 22.1455 21.9837 22.1455C21.6837 22.1455 21.6837 22.0455 21.3754 22.0455C21.0671 22.0455 21.0754 22.0038 20.7671 22.0038C20.4587 22.0038 20.4587 22.0205 20.1587 22.0205C19.8587 22.0205 19.8587 22.0871 19.5504 22.0871C19.2421 22.0871 19.2504 22.0371 18.9421 22.0371C18.6337 22.0371 18.6421 22.0371 18.3337 22.0371C18.0254 22.0371 18.0337 22.0621 17.7337 22.0621C17.4337 22.0621 17.4337 22.0621 17.1337 22.0621C16.8337 22.0621 16.8337 22.1121 16.5254 22.1121C16.2171 22.1121 16.2254 22.1121 15.9171 22.1121C15.6087 22.1121 15.6087 22.0455 15.3087 22.0455C15.0087 22.0455 15.0087 22.1621 14.7004 22.1621C14.3921 22.1621 14.4004 22.0705 14.0921 22.0705C13.7837 22.0705 13.7921 22.1538 13.4837 22.1538C13.1754 22.1538 13.1754 22.0705 12.8754 22.0705C12.5754 22.0705 12.5671 22.1538 12.2671 22.1538C11.9671 22.1538 11.9587 22.0955 11.6587 22.0955C11.3587 22.0955 11.3504 22.1371 11.0504 22.1371C10.7504 22.1371 10.7421 22.0955 10.4421 22.0955C10.1421 22.0955 10.1337 22.1455 9.83372 22.1455C9.53372 22.1455 9.52539 22.1205 9.22539 22.1205C8.92539 22.1205 8.91706 22.1538 8.61706 22.1538C8.31706 22.1538 8.30872 22.1121 8.00039 22.1121C7.69206 22.1121 7.69206 22.1538 7.38372 22.1538C7.07539 22.1538 7.07539 22.0871 6.76706 22.0871C6.57539 22.0871 6.40039 22.0455 6.21706 22.0038C6.03372 21.9621 5.84206 21.9455 5.67539 21.8621C5.50872 21.7788 5.38372 21.6288 5.24206 21.5121C5.10039 21.3955 4.99206 21.2538 4.87539 21.1038C4.75872 20.9538 4.55872 20.8621 4.48372 20.6955C4.40872 20.5288 4.38372 20.3288 4.34206 20.1455C4.30039 19.9621 4.27539 19.7788 4.27539 19.5871H4.29206C4.29206 19.3955 4.25872 19.2038 4.30039 19.0205C4.34206 18.8371 4.48372 18.6871 4.55872 18.5205C4.63372 18.3538 4.65039 18.1288 4.76706 17.9871C4.88372 17.8455 5.10039 17.7955 5.25039 17.6788C5.40039 17.5621 5.48372 17.3455 5.65872 17.2705C5.83372 17.1955 6.03372 17.2038 6.22539 17.1621C6.41706 17.1205 6.59206 17.1621 6.78372 17.1621C7.08372 17.1621 7.08372 17.0955 7.39206 17.0955C7.70039 17.0955 7.69206 17.1371 8.00039 17.1371C8.30872 17.1371 8.30039 17.1205 8.60872 17.1205C8.91706 17.1205 8.91706 17.1205 9.21706 17.1205C9.51706 17.1205 9.51706 17.0871 9.82539 17.0871C10.1337 17.0871 10.1254 17.0621 10.4337 17.0621C10.7421 17.0621 10.7337 17.0955 11.0421 17.0955C11.3504 17.0955 11.3421 17.0538 11.6421 17.0538C11.9421 17.0538 11.9421 17.1705 12.2421 17.1705C12.5421 17.1705 12.5421 17.1121 12.8504 17.1121C13.1587 17.1121 13.1504 17.1038 13.4587 17.1038C13.7671 17.1038 13.7671 17.0538 14.0671 17.0538C14.3671 17.0538 14.3671 17.1121 14.6754 17.1121C14.9837 17.1121 14.9754 17.1621 15.2837 17.1621C15.5921 17.1621 15.5837 17.1788 15.8921 17.1788C16.2004 17.1788 16.2004 17.1205 16.5004 17.1205C16.8004 17.1205 16.8087 17.1038 17.1087 17.1038C17.4087 17.1038 17.4171 17.1038 17.7171 17.1038C18.0171 17.1038 18.0254 17.1705 18.3254 17.1705C18.6254 17.1705 18.6337 17.1371 18.9337 17.1371C19.2337 17.1371 19.2421 17.0288 19.5421 17.0288C19.8421 17.0288 19.8504 17.0288 20.1504 17.0288C20.4504 17.0288 20.4587 17.0538 20.7587 17.0538C21.0587 17.0538 21.0671 17.0621 21.3754 17.0621C21.6837 17.0621 21.6837 17.0621 21.9921 17.0621C22.3004 17.0621 22.3004 17.0955 22.6087 17.0955C22.8004 17.0955 22.9921 17.0788 23.1754 17.1205C23.3587 17.1621 23.5087 17.2955 23.6754 17.3788C23.8421 17.4621 24.0671 17.4621 24.2171 17.5788C24.3671 17.6955 24.4254 17.9038 24.5421 18.0538C24.6587 18.2038 24.7587 18.3455 24.8421 18.5205C24.9254 18.6955 25.0421 18.8455 25.0837 19.0288C25.1254 19.2121 25.1004 19.4038 25.1004 19.5955H25.1171C25.1171 19.7871 25.0754 19.9705 25.0337 20.1538C24.9921 20.3371 24.8837 20.4955 24.8004 20.6621C24.7171 20.8288 24.6254 20.9788 24.5087 21.1205C24.3921 21.2621 24.2754 21.4038 24.1337 21.5205C23.9921 21.6371 23.8337 21.7288 23.6671 21.8121C23.5004 21.8955 23.3337 21.9538 23.1504 21.9955C22.9671 22.0371 22.7921 22.1705 22.6004 22.1705L22.5921 22.1455Z" fill="#FFFDF8"></path><path id="Vector_4" d="M14.6996 22.6957C14.4663 22.6957 14.3246 22.654 14.2413 22.629C14.1163 22.5873 14.0413 22.5957 13.9329 22.629C13.8163 22.6623 13.6996 22.6873 13.4913 22.6873C13.2829 22.6873 13.1663 22.6623 13.0496 22.629C12.9329 22.5957 12.8329 22.5957 12.7163 22.629C12.5996 22.6623 12.4829 22.6873 12.2746 22.6873C12.0663 22.6873 11.9663 22.6707 11.8579 22.6457C11.7496 22.629 11.5413 22.629 11.4329 22.6457C11.3413 22.6623 11.2413 22.6707 11.0496 22.6707C10.8579 22.6707 10.7663 22.654 10.6663 22.6457C10.5496 22.629 10.3246 22.629 10.2163 22.6457C10.1163 22.6623 10.0246 22.679 9.82461 22.679C9.64961 22.679 9.56628 22.679 9.47461 22.6623C9.34961 22.654 9.09128 22.654 8.96628 22.6623C8.87461 22.6707 8.78294 22.679 8.59961 22.679C8.41628 22.679 8.31628 22.6707 8.22461 22.654C8.10794 22.6373 7.86628 22.6373 7.74961 22.654C7.65794 22.6623 7.55794 22.679 7.37461 22.679C7.15794 22.679 7.03294 22.654 6.94961 22.629C6.88294 22.6123 6.85794 22.604 6.76628 22.604C6.50794 22.604 6.28294 22.554 6.09961 22.5123L5.96628 22.4873C5.80794 22.454 5.62461 22.4207 5.44128 22.3373C5.25794 22.2457 5.11628 22.1207 5.00794 22.0207C4.97461 21.9873 4.93294 21.954 4.89961 21.9207C4.72461 21.779 4.59128 21.6207 4.48294 21.479C4.43294 21.4123 4.38294 21.379 4.34961 21.354C4.23294 21.2623 4.08294 21.129 3.98294 20.9207C3.89128 20.7373 3.85794 20.5457 3.82461 20.3873L3.79961 20.254C3.74961 20.029 3.72461 19.7957 3.72461 19.579L3.74128 19.0373C3.74128 18.9873 3.75794 18.9457 3.76628 18.8957C3.81628 18.6873 3.91628 18.529 3.99128 18.404C4.01628 18.3623 4.04128 18.3207 4.06628 18.279C4.08294 18.2373 4.09128 18.1957 4.10794 18.154C4.14961 18.0123 4.19961 17.8207 4.34128 17.6457C4.48294 17.4707 4.66628 17.379 4.79961 17.3123C4.83294 17.2957 4.87461 17.279 4.90794 17.254C4.93294 17.229 4.95794 17.1957 4.98294 17.1623C5.07461 17.0457 5.20794 16.879 5.41628 16.779C5.60794 16.6873 5.79128 16.6707 5.94128 16.654C5.99128 16.654 6.04128 16.6457 6.09128 16.629C6.29128 16.5873 6.46628 16.5957 6.61628 16.604C6.75794 16.6123 6.84961 16.604 6.94961 16.5873C7.04128 16.5623 7.16628 16.5373 7.37461 16.5373C7.56628 16.5373 7.65794 16.554 7.74961 16.5623C7.87461 16.579 8.12461 16.579 8.24961 16.5623C8.33294 16.5623 8.41628 16.554 8.58294 16.554H9.19128C9.30794 16.554 9.36628 16.5373 9.43294 16.5373C9.52461 16.529 9.61628 16.5123 9.79961 16.5123C9.93294 16.5123 9.99128 16.5123 10.0579 16.504C10.1413 16.504 10.2329 16.4873 10.4079 16.4873C10.5829 16.4873 10.6829 16.4957 10.7663 16.504C10.8829 16.5207 11.1246 16.5207 11.2413 16.504C11.3329 16.4873 11.4246 16.479 11.6163 16.479C11.8496 16.479 11.9913 16.529 12.1163 16.579C12.1663 16.604 12.1746 16.604 12.2163 16.604C12.3163 16.604 12.3746 16.5957 12.4246 16.5873C12.5246 16.5707 12.6246 16.554 12.8246 16.554C12.9663 16.554 13.0413 16.554 13.1079 16.554C13.1913 16.554 13.2663 16.554 13.4329 16.554C13.5413 16.554 13.5996 16.5457 13.6579 16.5373C13.7579 16.5207 13.8496 16.504 14.0413 16.504C14.2496 16.504 14.3496 16.5207 14.4496 16.5457C14.4996 16.554 14.5496 16.5623 14.6496 16.5623C14.8413 16.5623 14.9413 16.579 15.0329 16.5957C15.0913 16.604 15.1413 16.6123 15.2496 16.6123C15.4163 16.6123 15.4913 16.6123 15.5746 16.6123C15.6996 16.6123 15.9413 16.6207 16.0579 16.5957C16.1579 16.579 16.2579 16.5623 16.4663 16.5623C16.6079 16.5623 16.6746 16.5623 16.7496 16.5623C16.8329 16.5623 16.9163 16.5623 17.0746 16.5623H17.6829C17.8996 16.5623 18.0163 16.5873 18.1079 16.604C18.2579 16.6373 18.4329 16.6207 18.5413 16.6123C18.6329 16.604 18.7246 16.5957 18.8996 16.5957C18.9579 16.5957 18.9663 16.5957 19.0163 16.5707C19.1413 16.529 19.2746 16.479 19.5079 16.479H20.1163C20.2913 16.479 20.3829 16.4957 20.4663 16.504C20.5329 16.504 20.5996 16.5123 20.7246 16.5123C20.8913 16.5123 20.9663 16.5123 21.0496 16.5123C21.1246 16.5123 21.1913 16.5123 21.3329 16.5123H21.9496C22.1329 16.5123 22.2246 16.5123 22.3163 16.529C22.3829 16.529 22.4413 16.5457 22.5663 16.5457H22.6746C22.8496 16.5457 23.0413 16.5457 23.2496 16.5873C23.4579 16.6373 23.6163 16.729 23.7413 16.8123C23.7829 16.8373 23.8246 16.8623 23.8663 16.8873C23.9079 16.904 23.9496 16.9123 23.9913 16.929C24.1329 16.9623 24.3329 17.0207 24.5079 17.1623C24.6829 17.2957 24.7746 17.4707 24.8496 17.5957C24.8746 17.6373 24.8913 17.679 24.9246 17.7207C25.0829 17.9207 25.1996 18.104 25.2913 18.2873C25.3079 18.329 25.3329 18.3707 25.3579 18.4123C25.4329 18.5457 25.5246 18.704 25.5746 18.9123C25.5829 18.9623 25.5913 19.0123 25.5996 19.054H25.6079L25.6246 19.5957C25.6246 19.8373 25.5746 20.054 25.5329 20.2457C25.4829 20.479 25.3913 20.6457 25.3163 20.779L25.2496 20.8957C25.1496 21.0957 25.0413 21.279 24.8913 21.4623C24.7663 21.6207 24.6246 21.7873 24.4329 21.9457C24.2579 22.0873 24.0746 22.204 23.8579 22.304C23.6413 22.404 23.4413 22.479 23.2246 22.529C23.1829 22.5373 23.1496 22.5623 23.1079 22.579C22.9746 22.6373 22.7829 22.7207 22.5579 22.7207H21.9496C21.7079 22.7207 21.5663 22.6707 21.4746 22.6457C21.2579 22.5707 21.0913 22.6123 20.9579 22.5957C20.8329 22.579 20.5746 22.579 20.4496 22.5873C20.3163 22.5873 20.0996 22.5873 19.9246 22.6123C19.8413 22.629 19.7163 22.654 19.5079 22.654C19.3163 22.654 19.2163 22.6373 19.1246 22.6207C19.0663 22.6123 19.0163 22.604 18.9079 22.604H18.2996C18.1746 22.604 18.1079 22.604 18.0496 22.604C17.9579 22.604 17.8746 22.6207 17.6996 22.6207H17.0913C16.9829 22.6207 16.9329 22.6207 16.8746 22.6373C16.7746 22.654 16.6829 22.6707 16.4829 22.6707H15.8746C15.6663 22.6707 15.5496 22.6457 15.4579 22.6207C15.3579 22.604 15.3079 22.5623 15.1496 22.6207C15.0246 22.6707 14.8829 22.7123 14.6579 22.7123L14.6996 22.6957ZM14.0913 21.5207C14.3246 21.5207 14.4663 21.5623 14.5496 21.5873C14.6496 21.6207 14.6829 21.6373 14.8079 21.5873C14.9329 21.5373 15.0746 21.4957 15.2996 21.4957C15.5079 21.4957 15.6246 21.5207 15.7163 21.5373C15.7829 21.554 15.8163 21.554 15.9079 21.554H16.5163C16.6246 21.554 16.6746 21.554 16.7329 21.5373C16.8329 21.5207 16.9246 21.504 17.1246 21.504H17.7329C17.8579 21.504 17.9246 21.504 17.9829 21.4957C18.0746 21.4957 18.1579 21.479 18.3329 21.479H18.9413C19.1329 21.479 19.2329 21.4957 19.3246 21.5123C19.4329 21.529 19.5996 21.5373 19.7413 21.5123C19.8246 21.4957 19.9496 21.4707 20.1579 21.4707C20.2996 21.4707 20.3663 21.4707 20.4413 21.4707C20.5246 21.4707 20.6079 21.4707 20.7663 21.4707C20.9579 21.4707 21.0496 21.4873 21.1496 21.4957C21.2079 21.4957 21.2663 21.5123 21.3746 21.5123C21.6163 21.5123 21.7579 21.5623 21.8496 21.5873C21.9079 21.604 21.9163 21.6123 21.9829 21.6123H22.5829C22.5829 21.6123 22.6663 21.579 22.7079 21.5623C22.8079 21.5123 22.9163 21.4707 23.0246 21.454C23.1579 21.4207 23.2829 21.379 23.4246 21.3123C23.5663 21.2457 23.6829 21.1707 23.7913 21.0873C23.8829 21.0123 23.9663 20.9123 24.0829 20.7707C24.1746 20.654 24.2496 20.5373 24.3163 20.4123C24.3413 20.354 24.3746 20.304 24.3996 20.2457C24.4413 20.1623 24.4913 20.079 24.4996 20.029C24.5246 19.9207 24.5496 19.829 24.5579 19.7457V19.5957V19.4373C24.5579 19.3207 24.5579 19.2207 24.5496 19.154C24.5413 19.104 24.4913 19.029 24.4496 18.954C24.4163 18.8873 24.3746 18.829 24.3496 18.7623C24.2913 18.6457 24.2246 18.5373 24.1163 18.404C24.0496 18.3207 23.9996 18.229 23.9413 18.1373C23.9163 18.0957 23.8829 18.029 23.8663 18.0123C23.8663 18.0123 23.8079 18.004 23.7663 17.9957C23.6496 17.9623 23.5413 17.929 23.4413 17.8873C23.3663 17.854 23.2913 17.804 23.2163 17.7623C23.1663 17.729 23.0829 17.679 23.0579 17.6707C22.9829 17.654 22.8663 17.654 22.7413 17.654H22.6079C22.4246 17.654 22.3329 17.654 22.2413 17.6373C22.1746 17.6373 22.1163 17.6207 21.9913 17.6207H21.3746C21.2079 17.6207 21.1329 17.6207 21.0496 17.6207C20.9746 17.6207 20.9079 17.6207 20.7663 17.6207C20.5913 17.6207 20.4996 17.6207 20.4163 17.604C20.3496 17.604 20.2829 17.5957 20.1579 17.5957H19.5496C19.4913 17.5957 19.4829 17.5957 19.4329 17.6123C19.3079 17.654 19.1746 17.704 18.9413 17.704C18.8163 17.704 18.7496 17.704 18.6913 17.7207C18.5996 17.729 18.5079 17.7373 18.3329 17.7373C18.1163 17.7373 17.9996 17.7123 17.9079 17.6873C17.8496 17.6707 17.8163 17.6623 17.7246 17.6623H17.1163C16.9746 17.6623 16.9079 17.6707 16.8329 17.6707C16.7496 17.6707 16.6663 17.6707 16.5079 17.6707C16.4079 17.6707 16.3496 17.679 16.2996 17.6873C16.1996 17.704 16.0996 17.7207 15.8913 17.7207C15.7246 17.7207 15.6413 17.7207 15.5663 17.7207C15.4996 17.7207 15.4246 17.7207 15.2913 17.7207C15.0996 17.7207 14.9996 17.704 14.9079 17.6873C14.8496 17.679 14.7996 17.6707 14.6913 17.6707C14.4829 17.6707 14.3829 17.654 14.2746 17.629C14.1746 17.6123 13.9579 17.6123 13.8579 17.629C13.7579 17.6457 13.6663 17.6623 13.4746 17.6623C13.3329 17.6623 13.2579 17.6623 13.1913 17.6623C13.1079 17.6623 13.0329 17.6623 12.8663 17.6623C12.7663 17.6623 12.7079 17.6707 12.6579 17.679C12.5579 17.6957 12.4579 17.7123 12.2579 17.7123C12.0246 17.7123 11.8829 17.6623 11.7579 17.6123C11.7079 17.5873 11.6996 17.5873 11.6579 17.5873C11.5413 17.5873 11.4829 17.5873 11.4329 17.604C11.3413 17.6207 11.2496 17.629 11.0579 17.629C10.8663 17.629 10.7829 17.6207 10.6913 17.6123C10.5663 17.5957 10.3163 17.5957 10.1829 17.6123C10.0996 17.6123 10.0079 17.629 9.83294 17.629C9.71628 17.629 9.65794 17.629 9.59128 17.6457C9.49961 17.654 9.40794 17.6707 9.22461 17.6707H8.61628C8.48294 17.6707 8.40794 17.679 8.34128 17.6873C8.25794 17.6873 8.17461 17.6957 8.00794 17.6957C7.81628 17.6957 7.72461 17.679 7.63294 17.6707C7.53294 17.654 7.35794 17.6457 7.22461 17.6707C7.09961 17.6957 6.85794 17.729 6.57461 17.7123C6.49128 17.7123 6.39961 17.704 6.35794 17.7123C6.26628 17.729 6.17461 17.7457 6.08294 17.754C6.02461 17.754 5.93294 17.7707 5.90794 17.779C5.90794 17.779 5.89128 17.8207 5.86628 17.854C5.79961 17.9373 5.72461 18.0373 5.60794 18.129C5.50794 18.2123 5.39128 18.2707 5.30794 18.3123C5.27461 18.329 5.23294 18.3457 5.19961 18.3707C5.20794 18.354 5.19961 18.429 5.18294 18.4707C5.14961 18.579 5.11628 18.6873 5.07461 18.779C5.03294 18.8623 4.98294 18.9373 4.94128 19.0123C4.90794 19.0623 4.86628 19.1373 4.85794 19.1623C4.84961 19.2123 4.85794 19.3123 4.85794 19.404C4.85794 19.4707 4.85794 19.5373 4.85794 19.604V19.8373C4.86628 19.904 4.87461 19.9707 4.89128 20.0373L4.92461 20.204C4.94128 20.3123 4.96628 20.4123 4.99128 20.4707C4.99128 20.4707 5.04128 20.5123 5.07461 20.5373C5.14961 20.5957 5.24128 20.6707 5.32461 20.779C5.44961 20.9373 5.52461 21.0373 5.60794 21.0957C5.66628 21.1457 5.72461 21.1957 5.78294 21.2457C5.84128 21.304 5.90794 21.3623 5.94961 21.379C6.00794 21.404 6.09961 21.4207 6.19961 21.4457L6.37461 21.479C6.83294 21.579 7.09128 21.5623 7.23294 21.5957C7.37461 21.629 7.54961 21.6123 7.65794 21.5957C7.74961 21.5873 7.84961 21.5707 8.03294 21.5707C8.21628 21.5707 8.31628 21.579 8.40794 21.5957C8.53294 21.6123 8.77461 21.6123 8.89128 21.5957C8.98294 21.5873 9.07461 21.579 9.25794 21.579C9.44128 21.579 9.51628 21.579 9.60794 21.5957C9.73294 21.604 9.96628 21.604 10.0913 21.5957C10.1913 21.579 10.2829 21.5623 10.4746 21.5623C10.6663 21.5623 10.7579 21.579 10.8579 21.5873C10.9746 21.604 11.1996 21.604 11.3163 21.5873C11.4079 21.5707 11.5079 21.5623 11.6996 21.5623C11.9079 21.5623 12.0079 21.579 12.1163 21.604C12.2079 21.6207 12.3496 21.6373 12.4746 21.604C12.5913 21.5707 12.7163 21.5457 12.9163 21.5457C13.1163 21.5457 13.2413 21.5707 13.3579 21.604C13.4746 21.6373 13.5746 21.6373 13.6913 21.604C13.8079 21.5707 13.9246 21.5457 14.1329 21.5457L14.0913 21.5207Z" fill="#031F39"></path><path id="Vector_5" d="M22.5921 30.479C22.3921 30.479 22.1893 30.479 21.9837 30.479C21.6837 30.479 21.6837 30.379 21.3754 30.379C21.0671 30.379 21.0754 30.3373 20.7671 30.3373C20.4587 30.3373 20.4587 30.354 20.1587 30.354C19.8587 30.354 19.8587 30.4206 19.5504 30.4206C19.2421 30.4206 19.2504 30.3706 18.9421 30.3706C18.6337 30.3706 18.6421 30.3706 18.3337 30.3706C18.0254 30.3706 18.0337 30.3956 17.7337 30.3956C17.4337 30.3956 17.4337 30.3956 17.1337 30.3956C16.8337 30.3956 16.8337 30.4456 16.5254 30.4456C16.2171 30.4456 16.2254 30.4456 15.9171 30.4456C15.6087 30.4456 15.6087 30.379 15.3087 30.379C15.0087 30.379 15.0087 30.4956 14.7004 30.4956C14.3921 30.4956 14.4004 30.404 14.0921 30.404C13.7837 30.404 13.7921 30.4873 13.4837 30.4873C13.1754 30.4873 13.1754 30.404 12.8754 30.404C12.5754 30.404 12.5671 30.4873 12.2671 30.4873C11.9671 30.4873 11.9587 30.429 11.6587 30.429C11.3587 30.429 11.3504 30.4706 11.0504 30.4706C10.7504 30.4706 10.7421 30.429 10.4421 30.429C10.1421 30.429 10.1337 30.479 9.83372 30.479C9.53372 30.479 9.52539 30.454 9.22539 30.454C8.92539 30.454 8.91706 30.4873 8.61706 30.4873C8.31706 30.4873 8.30872 30.4456 8.00039 30.4456C7.69206 30.4456 7.69206 30.4873 7.38372 30.4873C7.07539 30.4873 7.07539 30.4206 6.76706 30.4206C6.57539 30.4206 6.40039 30.379 6.21706 30.3373C6.03372 30.2956 5.84206 30.279 5.67539 30.1956C5.50872 30.1123 5.38372 29.9623 5.24206 29.8456C5.10039 29.729 4.99206 29.5873 4.87539 29.4373C4.75872 29.2873 4.55872 29.1956 4.48372 29.029C4.40872 28.8623 4.38372 28.6623 4.34206 28.479C4.30039 28.2956 4.27539 28.1123 4.27539 27.9206H4.29206C4.29206 27.729 4.25872 27.5373 4.30039 27.354C4.34206 27.1706 4.48372 27.0206 4.55872 26.854C4.63372 26.6873 4.65039 26.4623 4.76706 26.3206C4.88372 26.179 5.10039 26.129 5.25039 26.0123C5.40039 25.8956 5.48372 25.679 5.65872 25.604C5.83372 25.529 6.03372 25.5373 6.22539 25.4956C6.41706 25.454 6.59206 25.4956 6.78372 25.4956C7.08372 25.4956 7.08372 25.429 7.39206 25.429C7.70039 25.429 7.69206 25.4706 8.00039 25.4706C8.30872 25.4706 8.30039 25.454 8.60872 25.454C8.91706 25.454 8.91706 25.454 9.21706 25.454C9.51706 25.454 9.51706 25.4206 9.82539 25.4206C10.1337 25.4206 10.1254 25.3956 10.4337 25.3956C10.7421 25.3956 10.7337 25.429 11.0421 25.429C11.3504 25.429 11.3421 25.3873 11.6421 25.3873C11.9421 25.3873 11.9421 25.504 12.2421 25.504C12.5421 25.504 12.5421 25.4456 12.8504 25.4456C13.1587 25.4456 13.1504 25.4373 13.4587 25.4373C13.7671 25.4373 13.7671 25.3873 14.0671 25.3873C14.3671 25.3873 14.3671 25.4456 14.6754 25.4456C14.9837 25.4456 14.9754 25.4956 15.2837 25.4956C15.5921 25.4956 15.5837 25.5123 15.8921 25.5123C16.2004 25.5123 16.2004 25.454 16.5004 25.454C16.8004 25.454 16.8087 25.4373 17.1087 25.4373C17.4087 25.4373 17.4171 25.4373 17.7171 25.4373C18.0171 25.4373 18.0254 25.504 18.3254 25.504C18.6254 25.504 18.6337 25.4706 18.9337 25.4706C19.2337 25.4706 19.2421 25.3623 19.5421 25.3623C19.8421 25.3623 19.8504 25.3623 20.1504 25.3623C20.4504 25.3623 20.4587 25.3873 20.7587 25.3873C21.0587 25.3873 21.0671 25.3956 21.3754 25.3956C21.6837 25.3956 21.6837 25.3956 21.9921 25.3956C22.3004 25.3956 22.3004 25.429 22.6087 25.429C22.8004 25.429 22.9921 25.4123 23.1754 25.454C23.3587 25.4956 23.5087 25.629 23.6754 25.7123C23.8421 25.7956 24.0671 25.7956 24.2171 25.9123C24.3671 26.029 24.4254 26.2373 24.5421 26.3873C24.6587 26.5373 24.7587 26.679 24.8421 26.854C24.9254 27.029 25.0421 27.179 25.0837 27.3623C25.1254 27.5456 25.1004 27.7373 25.1004 27.929H25.1171C25.1171 28.1206 25.0754 28.304 25.0337 28.4873C24.9921 28.6706 24.8837 28.829 24.8004 28.9956C24.7171 29.1623 24.6254 29.3123 24.5087 29.454C24.3921 29.5956 24.2754 29.7373 24.1337 29.854C23.9921 29.9706 23.8337 30.0623 23.6671 30.1456C23.5004 30.229 23.3337 30.2873 23.1504 30.329C22.9671 30.3706 22.7921 30.504 22.6004 30.504L22.5921 30.479Z" fill="#FFFDF8"></path><path id="Vector_6" d="M14.6996 31.0292C14.4663 31.0292 14.3246 30.9876 14.2413 30.9626C14.1163 30.9292 14.0413 30.9376 13.9329 30.9626C13.8163 30.9959 13.6996 31.0209 13.4913 31.0209C13.2829 31.0209 13.1663 30.9959 13.0496 30.9626C12.9329 30.9292 12.8329 30.9292 12.7163 30.9626C12.5996 30.9959 12.4746 31.0209 12.2746 31.0209C12.0746 31.0209 11.9663 31.0042 11.8579 30.9792C11.7496 30.9542 11.5329 30.9626 11.4329 30.9792C11.3413 30.9959 11.2413 31.0042 11.0496 31.0042C10.8579 31.0042 10.7663 30.9876 10.6663 30.9792C10.5579 30.9626 10.3246 30.9626 10.2163 30.9792C10.1163 30.9959 10.0246 31.0126 9.82461 31.0126C9.64961 31.0126 9.56628 31.0126 9.47461 30.9959C9.34961 30.9876 9.09128 30.9876 8.96628 30.9959C8.87461 31.0042 8.78294 31.0126 8.59961 31.0126C8.41628 31.0126 8.31628 31.0042 8.22461 30.9876C8.10794 30.9709 7.86628 30.9709 7.74961 30.9876C7.65794 30.9959 7.55794 31.0126 7.37461 31.0126C7.15794 31.0126 7.03294 30.9876 6.94961 30.9626C6.88294 30.9459 6.85794 30.9376 6.76628 30.9376C6.50794 30.9376 6.28294 30.8876 6.09961 30.8459L5.96628 30.8209C5.80794 30.7876 5.62461 30.7542 5.44128 30.6709C5.25794 30.5792 5.11628 30.4542 5.00794 30.3542C4.97461 30.3209 4.93294 30.2876 4.89961 30.2542C4.72461 30.1126 4.59961 29.9542 4.48294 29.8126C4.43294 29.7459 4.38294 29.7042 4.34961 29.6792C4.23294 29.5876 4.08294 29.4542 3.98294 29.2459C3.89128 29.0626 3.85794 28.8792 3.82461 28.7126L3.79961 28.5792C3.74961 28.3542 3.72461 28.1209 3.72461 27.9042L3.74128 27.3626C3.74128 27.3126 3.75794 27.2709 3.76628 27.2209C3.81628 27.0126 3.91628 26.8542 3.99128 26.7292C4.01628 26.6876 4.04128 26.6459 4.06628 26.6042C4.08294 26.5626 4.09128 26.5209 4.10794 26.4709C4.14961 26.3292 4.19961 26.1376 4.34128 25.9626C4.48294 25.7876 4.66628 25.6959 4.79961 25.6292C4.83294 25.6126 4.87461 25.5959 4.90794 25.5709C4.93294 25.5459 4.95794 25.5126 4.98294 25.4792C5.07461 25.3626 5.19961 25.1959 5.41628 25.0959C5.60794 25.0042 5.79128 24.9876 5.94128 24.9709C5.99128 24.9709 6.04128 24.9626 6.09128 24.9459C6.29128 24.9042 6.46628 24.9126 6.61628 24.9209C6.75794 24.9292 6.84961 24.9209 6.94961 24.9042C7.04128 24.8792 7.16628 24.8542 7.37461 24.8542C7.56628 24.8542 7.65794 24.8709 7.74961 24.8792C7.87461 24.8959 8.12461 24.8959 8.24961 24.8792C8.33294 24.8792 8.41628 24.8709 8.58294 24.8709H9.19128C9.30794 24.8709 9.36628 24.8542 9.43294 24.8542C9.52461 24.8459 9.61628 24.8292 9.79961 24.8292C9.93294 24.8292 9.99128 24.8292 10.0579 24.8209C10.1413 24.8209 10.2329 24.8042 10.4079 24.8042C10.5829 24.8042 10.6829 24.8126 10.7746 24.8209C10.8913 24.8376 11.1329 24.8376 11.2496 24.8209C11.3413 24.8042 11.4329 24.7959 11.6246 24.7959C11.8579 24.7959 11.9996 24.8459 12.1246 24.8959C12.1746 24.9209 12.1829 24.9209 12.2246 24.9209C12.3246 24.9209 12.3746 24.9126 12.4329 24.9042C12.5329 24.8876 12.6329 24.8709 12.8329 24.8709C12.9746 24.8709 13.0496 24.8709 13.1163 24.8709C13.1996 24.8709 13.2746 24.8709 13.4413 24.8709C13.5496 24.8709 13.6079 24.8626 13.6663 24.8542C13.7663 24.8376 13.8579 24.8292 14.0496 24.8292C14.2579 24.8292 14.3579 24.8459 14.4579 24.8709C14.5079 24.8792 14.5579 24.8876 14.6579 24.8876C14.8496 24.8876 14.9496 24.9042 15.0413 24.9209C15.0996 24.9292 15.1496 24.9376 15.2579 24.9376C15.4246 24.9376 15.4996 24.9376 15.5829 24.9376C15.7079 24.9376 15.9496 24.9459 16.0663 24.9209C16.1663 24.9042 16.2663 24.8876 16.4746 24.8876C16.6163 24.8876 16.6829 24.8876 16.7579 24.8876C16.8413 24.8876 16.9246 24.8876 17.0829 24.8876H17.6913C17.9079 24.8876 18.0246 24.9126 18.1163 24.9292C18.2663 24.9626 18.4413 24.9459 18.5496 24.9376C18.6413 24.9292 18.7329 24.9209 18.9079 24.9209C18.9663 24.9209 18.9746 24.9209 19.0246 24.8959C19.1496 24.8542 19.2829 24.8042 19.5163 24.8042H20.1246C20.2996 24.8042 20.3913 24.8209 20.4746 24.8292C20.5413 24.8292 20.6079 24.8376 20.7329 24.8376C20.8996 24.8376 20.9746 24.8376 21.0579 24.8376C21.1329 24.8376 21.1996 24.8376 21.3413 24.8376H21.9579C22.1413 24.8376 22.2329 24.8376 22.3163 24.8542C22.3829 24.8542 22.4413 24.8709 22.5663 24.8709H22.6746C22.8496 24.8709 23.0413 24.8709 23.2496 24.9126C23.4579 24.9626 23.6163 25.0542 23.7413 25.1376C23.7829 25.1626 23.8246 25.1876 23.8663 25.2126C23.9079 25.2292 23.9496 25.2376 23.9913 25.2542C24.1329 25.2876 24.3329 25.3459 24.5079 25.4876C24.6829 25.6209 24.7746 25.7959 24.8496 25.9209C24.8746 25.9626 24.8913 26.0042 24.9246 26.0459C25.0829 26.2459 25.1996 26.4292 25.2913 26.6126C25.3079 26.6542 25.3329 26.6959 25.3579 26.7376C25.4329 26.8709 25.5246 27.0292 25.5746 27.2376C25.5829 27.2876 25.5913 27.3376 25.5996 27.3792H25.6079L25.6246 27.9209C25.6246 28.1626 25.5746 28.3792 25.5329 28.5709C25.4829 28.8042 25.3913 28.9709 25.3163 29.0959L25.2496 29.2209C25.1496 29.4209 25.0413 29.6042 24.8913 29.7876C24.7663 29.9459 24.6246 30.1126 24.4329 30.2709C24.2579 30.4042 24.0746 30.5209 23.8579 30.6292C23.6413 30.7376 23.4413 30.8042 23.2246 30.8542C23.1829 30.8626 23.1496 30.8876 23.1079 30.9042C22.9746 30.9626 22.7829 31.0459 22.5579 31.0459H21.9496C21.7079 31.0459 21.5663 30.9959 21.4746 30.9709C21.2579 30.8959 21.0913 30.9376 20.9579 30.9209C20.8329 30.9042 20.5746 30.9042 20.4496 30.9126C20.3163 30.9126 20.0996 30.9042 19.9246 30.9376C19.8413 30.9542 19.7163 30.9792 19.5079 30.9792C19.3163 30.9792 19.2163 30.9626 19.1246 30.9459C19.0663 30.9376 19.0163 30.9292 18.9079 30.9292H18.2996C18.1746 30.9292 18.1079 30.9292 18.0496 30.9292C17.9579 30.9292 17.8746 30.9459 17.6996 30.9459H17.0913C16.9829 30.9459 16.9329 30.9459 16.8746 30.9626C16.7746 30.9792 16.6829 30.9959 16.4829 30.9959H15.8746C15.6663 30.9959 15.5496 30.9709 15.4579 30.9459C15.3579 30.9292 15.3079 30.8876 15.1496 30.9459C15.0246 30.9959 14.8829 31.0376 14.6579 31.0376L14.6996 31.0292ZM14.0913 29.8459C14.3246 29.8459 14.4663 29.8876 14.5496 29.9126C14.6496 29.9459 14.6829 29.9626 14.8079 29.9126C14.9329 29.8626 15.0746 29.8209 15.2996 29.8209C15.5079 29.8209 15.6246 29.8459 15.7163 29.8626C15.7829 29.8792 15.8163 29.8792 15.9079 29.8792H16.5163C16.6246 29.8792 16.6746 29.8792 16.7329 29.8626C16.8329 29.8459 16.9246 29.8292 17.1246 29.8292H17.7329C17.8579 29.8292 17.9246 29.8292 17.9829 29.8209C18.0746 29.8209 18.1579 29.8042 18.3329 29.8042H18.9413C19.1329 29.8042 19.2329 29.8209 19.3246 29.8376C19.4329 29.8542 19.5996 29.8626 19.7413 29.8376C19.8246 29.8209 19.9496 29.7959 20.1579 29.7959C20.2996 29.7959 20.3663 29.7959 20.4413 29.7959C20.5246 29.7959 20.6079 29.7959 20.7663 29.7959C20.9579 29.7959 21.0496 29.8126 21.1496 29.8209C21.2079 29.8209 21.2663 29.8376 21.3746 29.8376C21.6163 29.8376 21.7579 29.8876 21.8496 29.9126C21.9079 29.9292 21.9163 29.9376 21.9829 29.9376H22.5829C22.5829 29.9376 22.6663 29.9042 22.7079 29.8876C22.8079 29.8376 22.9163 29.7959 23.0246 29.7792C23.1579 29.7459 23.2829 29.7042 23.4246 29.6376C23.5663 29.5709 23.6829 29.4959 23.7913 29.4126C23.8996 29.3292 23.9913 29.2126 24.0829 29.0959C24.1746 28.9792 24.2496 28.8626 24.3079 28.7376C24.3329 28.6792 24.3663 28.6292 24.3996 28.5709C24.4413 28.4876 24.4913 28.4042 24.4996 28.3542C24.5246 28.2459 24.5496 28.1542 24.5579 28.0709V27.9209V27.7626C24.5579 27.6459 24.5579 27.5459 24.5496 27.4792C24.5413 27.4292 24.4913 27.3542 24.4496 27.2792C24.4163 27.2126 24.3746 27.1542 24.3496 27.0876C24.2996 26.9792 24.2163 26.8626 24.1163 26.7292C24.0496 26.6459 23.9996 26.5542 23.9413 26.4626C23.9163 26.4209 23.8829 26.3542 23.8663 26.3376C23.8663 26.3376 23.7996 26.3292 23.7579 26.3126C23.6496 26.2792 23.5329 26.2459 23.4329 26.2042C23.3579 26.1709 23.2829 26.1209 23.2079 26.0792C23.1579 26.0459 23.0746 25.9959 23.0496 25.9876C22.9746 25.9709 22.8579 25.9709 22.7329 25.9709H22.5996C22.4163 25.9709 22.3246 25.9709 22.2329 25.9542C22.1663 25.9542 22.1079 25.9376 21.9829 25.9376H21.3663C21.1996 25.9376 21.1246 25.9376 21.0413 25.9376C20.9663 25.9376 20.8996 25.9376 20.7579 25.9376C20.5829 25.9376 20.4913 25.9376 20.4079 25.9209C20.3413 25.9209 20.2746 25.9126 20.1496 25.9126H19.5413C19.4829 25.9126 19.4746 25.9126 19.4246 25.9292C19.2996 25.9709 19.1663 26.0209 18.9329 26.0209C18.8079 26.0209 18.7413 26.0209 18.6829 26.0376C18.5913 26.0459 18.4996 26.0542 18.3246 26.0542C18.1079 26.0542 17.9913 26.0292 17.8996 26.0042C17.8413 25.9876 17.8079 25.9792 17.7163 25.9792H17.1079C16.9663 25.9792 16.8996 25.9876 16.8246 25.9876C16.7413 25.9876 16.6579 25.9876 16.4996 25.9876C16.3996 25.9876 16.3413 25.9959 16.2913 26.0042C16.1913 26.0209 16.0913 26.0376 15.8829 26.0376C15.7163 26.0376 15.6413 26.0376 15.5579 26.0376C15.4913 26.0376 15.4163 26.0376 15.2746 26.0376C15.0829 26.0376 14.9829 26.0209 14.8913 26.0042C14.8329 25.9959 14.7829 25.9876 14.6746 25.9876C14.4663 25.9876 14.3663 25.9709 14.2663 25.9459C14.1579 25.9292 13.9496 25.9292 13.8496 25.9459C13.7496 25.9626 13.6579 25.9709 13.4663 25.9709C13.3246 25.9709 13.2496 25.9709 13.1829 25.9709C13.0996 25.9709 13.0246 25.9709 12.8579 25.9709C12.7579 25.9709 12.7079 25.9792 12.6496 25.9876C12.5496 26.0042 12.4496 26.0209 12.2496 26.0209C12.0163 26.0209 11.8746 25.9709 11.7496 25.9209C11.6996 25.8959 11.6913 25.8959 11.6496 25.8959C11.5329 25.8959 11.4746 25.8959 11.4246 25.9126C11.3329 25.9292 11.2413 25.9376 11.0496 25.9376C10.8579 25.9376 10.7746 25.9292 10.6829 25.9209C10.5579 25.9042 10.3079 25.9042 10.1829 25.9209C10.0996 25.9209 10.0079 25.9376 9.83294 25.9376C9.71628 25.9376 9.65794 25.9376 9.59961 25.9542C9.50794 25.9626 9.41628 25.9792 9.22461 25.9792H8.61628C8.48294 25.9792 8.40794 25.9876 8.34128 25.9959C8.25794 25.9959 8.17461 26.0042 8.00794 26.0042C7.81628 26.0042 7.72461 25.9876 7.63294 25.9792C7.53294 25.9626 7.35794 25.9542 7.22461 25.9792C7.09961 26.0042 6.85794 26.0376 6.57461 26.0209C6.49128 26.0209 6.39961 26.0126 6.35794 26.0209C6.26628 26.0376 6.17461 26.0542 6.08294 26.0626C6.02461 26.0626 5.93294 26.0792 5.90794 26.0876C5.90794 26.0876 5.89128 26.1292 5.86628 26.1626C5.79961 26.2459 5.72461 26.3459 5.60794 26.4376C5.49961 26.5209 5.39128 26.5792 5.29961 26.6209C5.25794 26.6376 5.22461 26.6542 5.19128 26.6792C5.21628 26.6792 5.19128 26.7376 5.17461 26.7792C5.14128 26.8876 5.10794 26.9959 5.06628 27.0876C5.02461 27.1709 4.97461 27.2459 4.92461 27.3209C4.89128 27.3709 4.84961 27.4459 4.84128 27.4709C4.83294 27.5209 4.84128 27.6209 4.84128 27.7126C4.84128 27.7792 4.84128 27.8459 4.84128 27.9126V28.1459C4.84961 28.2126 4.85794 28.2792 4.87461 28.3459L4.90794 28.5126C4.92461 28.6209 4.94961 28.7209 4.97461 28.7792C4.97461 28.7792 5.02461 28.8209 5.05794 28.8459C5.13294 28.9042 5.22461 28.9876 5.30794 29.0876C5.43294 29.2459 5.50794 29.3459 5.59128 29.4042C5.64961 29.4542 5.70794 29.5042 5.75794 29.5542C5.81628 29.6126 5.88294 29.6709 5.92461 29.6876C5.98294 29.7126 6.07461 29.7292 6.17461 29.7542L6.34961 29.7876C6.80794 29.8876 7.06628 29.8709 7.20794 29.9042C7.34961 29.9376 7.52461 29.9209 7.63294 29.9042C7.72461 29.8959 7.82461 29.8792 8.00794 29.8792C8.19128 29.8792 8.29128 29.8876 8.38294 29.9042C8.50794 29.9209 8.74961 29.9209 8.86628 29.9042C8.95794 29.8959 9.04961 29.8876 9.23294 29.8876C9.41628 29.8876 9.49128 29.8876 9.58294 29.9042C9.69961 29.9126 9.94128 29.9126 10.0663 29.9042C10.1663 29.8876 10.2579 29.8709 10.4496 29.8709C10.6413 29.8709 10.7329 29.8876 10.8329 29.8959C10.9496 29.9126 11.1829 29.9126 11.2913 29.8959C11.3829 29.8792 11.4829 29.8709 11.6746 29.8709C11.8829 29.8709 11.9829 29.8876 12.0913 29.9126C12.1829 29.9292 12.3246 29.9459 12.4496 29.9126C12.5663 29.8792 12.6913 29.8542 12.8913 29.8542C13.0913 29.8542 13.2163 29.8792 13.3329 29.9126C13.4496 29.9459 13.5496 29.9459 13.6663 29.9126C13.7829 29.8792 13.8996 29.8542 14.1079 29.8542L14.0913 29.8459Z" fill="#031F39"></path><path id="Vector_7" d="M18.5004 9.3375C18.5004 9.1375 18.3754 8.94583 18.3421 8.75417C18.3087 8.5625 18.2421 8.37917 18.1837 8.19583C18.1254 8.0125 18.0587 7.82917 17.9671 7.65417C17.8754 7.47917 17.8087 7.29583 17.6921 7.1375C17.5754 6.97917 17.4587 6.82083 17.3254 6.67917C17.1921 6.5375 17.0671 6.3625 16.9087 6.24583C16.7504 6.12917 16.5171 6.12917 16.3421 6.0375C16.1671 5.94583 16.0254 5.7875 15.8337 5.72917C15.6421 5.67083 15.4337 5.72083 15.2421 5.6875C15.0504 5.65417 14.8671 5.5625 14.6671 5.5625C14.4671 5.5625 14.2671 5.5875 14.0754 5.6125C13.8837 5.6375 13.6837 5.67917 13.4921 5.7375C13.3004 5.79583 13.0921 5.8375 12.9254 5.92083C12.7587 6.00417 12.5671 6.12083 12.4087 6.2375C12.2504 6.35417 12.1421 6.5375 12.0004 6.67917C11.8587 6.82083 11.6754 6.92917 11.5587 7.0875C11.4421 7.24583 11.3504 7.42917 11.2587 7.60417C11.1671 7.77917 11.0754 7.9625 11.0171 8.15417C10.9587 8.34583 10.9254 8.54583 10.8921 8.7375C10.8587 8.92917 10.9504 9.1375 10.9504 9.32917C10.9504 9.52083 10.8671 9.72917 10.8921 9.92083C10.9171 10.1125 11.0921 10.2792 11.1504 10.4625C11.2087 10.6458 11.2837 10.8208 11.3671 10.9958C11.4504 11.1708 11.5004 11.3708 11.6171 11.5292C11.7337 11.6875 11.8504 11.8458 11.9837 11.9875C12.1171 12.1292 12.2421 12.3042 12.4004 12.4208C12.5587 12.5375 12.7671 12.5875 12.9421 12.6708C13.1171 12.7542 13.3004 12.8292 13.4837 12.8958C13.6671 12.9625 13.8504 13.0708 14.0421 13.1042C14.2337 13.1375 14.4421 13.0375 14.6421 13.0375C14.8421 13.0375 15.0421 13.1125 15.2337 13.0792C15.4254 13.0458 15.6087 12.9375 15.7921 12.8792C15.9754 12.8208 16.1754 12.7792 16.3504 12.6958C16.5254 12.6125 16.6837 12.4875 16.8421 12.3708C17.0004 12.2542 17.2004 12.1792 17.3421 12.0375C17.4837 11.8958 17.5087 11.6625 17.6254 11.5042C17.7421 11.3458 17.9421 11.2458 18.0337 11.0625C18.1254 10.8792 18.1421 10.6792 18.2004 10.4958C18.2587 10.3125 18.3171 10.1208 18.3421 9.92917C18.3671 9.7375 18.4671 9.54583 18.4671 9.34583L18.5004 9.3375Z" fill="#FFFDF8"></path><path id="Vector_8" d="M14.1583 13.6539C14.1083 13.6539 14.05 13.6539 14 13.6372C13.8083 13.6039 13.65 13.5372 13.5167 13.4789C13.4667 13.4539 13.4083 13.4289 13.3583 13.4122C13.1417 13.3455 12.9333 13.2622 12.7333 13.1539C12.6833 13.1289 12.625 13.1039 12.5667 13.0872C12.4333 13.0372 12.275 12.9705 12.1167 12.8622C11.9667 12.7539 11.85 12.6205 11.7583 12.5039C11.7167 12.4622 11.6833 12.4122 11.6417 12.3705C11.4833 12.2122 11.35 12.0372 11.225 11.8539C11.1083 11.6955 11.0417 11.5289 10.9917 11.4039C10.975 11.3539 10.95 11.2955 10.925 11.2455C10.825 11.0455 10.7417 10.8539 10.675 10.6372C10.675 10.6205 10.6333 10.5622 10.6083 10.5205C10.5333 10.3955 10.4333 10.2289 10.4 10.0122C10.3667 9.8122 10.4 9.6372 10.425 9.49553C10.4333 9.44553 10.45 9.3872 10.45 9.3372C10.45 9.2872 10.4333 9.22886 10.425 9.17886C10.4 9.0372 10.3667 8.8622 10.3917 8.65386C10.425 8.42886 10.4667 8.19553 10.5333 7.9872C10.6 7.77053 10.7083 7.5622 10.8083 7.3622C10.925 7.1372 11.025 6.9372 11.15 6.77053C11.2583 6.62053 11.4 6.50386 11.5083 6.4122C11.55 6.37053 11.6 6.3372 11.6417 6.29553C11.6833 6.25386 11.7167 6.20386 11.7583 6.1622C11.85 6.05386 11.9583 5.9122 12.1083 5.80386C12.2917 5.67053 12.4917 5.54553 12.6917 5.44553C12.8583 5.3622 13.025 5.3122 13.175 5.27886C13.2333 5.2622 13.2833 5.24553 13.3417 5.22886C13.55 5.1622 13.7833 5.12053 14.0083 5.0872C14.4167 5.02053 14.8917 5.02886 15.1833 5.12053C15.2333 5.1372 15.2917 5.15386 15.3417 5.1622C15.3917 5.1622 15.45 5.1622 15.5083 5.1622C15.6583 5.1622 15.8333 5.1622 16.025 5.22053C16.2167 5.27886 16.3583 5.3872 16.475 5.47053C16.5167 5.50386 16.5583 5.5372 16.6083 5.5622C16.6333 5.57053 16.6917 5.5872 16.75 5.60386C16.8917 5.6372 17.075 5.6872 17.25 5.8122C17.4 5.92053 17.5167 6.05386 17.6083 6.17053C17.65 6.2122 17.6833 6.2622 17.725 6.30386C17.875 6.45386 18 6.62053 18.125 6.79553C18.25 6.9622 18.325 7.1122 18.3917 7.27053L18.4583 7.4122C18.5583 7.6122 18.6417 7.8122 18.7083 8.02886L18.7417 8.12053C18.8 8.30386 18.8583 8.47886 18.8917 8.67053C18.8917 8.72053 18.9167 8.7622 18.9417 8.8122C18.9917 8.94553 19.0583 9.12886 19.0583 9.3372C19.0583 9.5372 19.0083 9.70386 18.9667 9.84553C18.95 9.90386 18.9333 9.95386 18.925 10.0122C18.8917 10.2372 18.8333 10.4539 18.7583 10.6622C18.7417 10.7205 18.725 10.7789 18.7167 10.8372C18.6833 10.9789 18.65 11.1455 18.5583 11.3122C18.4583 11.5039 18.3167 11.6289 18.2083 11.7289C18.175 11.7622 18.1167 11.8039 18.1083 11.8289C18.0917 11.8455 18.075 11.9122 18.0583 11.9539C18.0083 12.0872 17.9333 12.2705 17.775 12.4289C17.6417 12.5622 17.4833 12.6539 17.3583 12.7205C17.3083 12.7539 17.2583 12.7789 17.2083 12.8122L17.1417 12.8622C16.9833 12.9789 16.825 13.0955 16.65 13.1872C16.4833 13.2705 16.3167 13.3205 16.1667 13.3622L16.0083 13.4122C15.9583 13.4289 15.9 13.4539 15.85 13.4789C15.7167 13.5372 15.5583 13.6039 15.3667 13.6372C15.1667 13.6622 15 13.6372 14.8583 13.6205C14.775 13.6039 14.7 13.5955 14.5417 13.6205C14.4333 13.6455 14.3083 13.6705 14.175 13.6705L14.1583 13.6539ZM14.675 6.10386C14.5 6.10386 14.3333 6.12886 14.1667 6.15386C14 6.17886 13.825 6.20386 13.6667 6.2622C13.5917 6.2872 13.5167 6.30386 13.45 6.32886C13.3417 6.35386 13.2417 6.3872 13.1833 6.42053C13.0333 6.49553 12.875 6.59553 12.7417 6.6872C12.7 6.7122 12.65 6.7872 12.5917 6.85386C12.525 6.92886 12.4667 7.0122 12.4 7.07886C12.3333 7.14553 12.2583 7.20386 12.1917 7.2622C12.125 7.32053 12.05 7.37886 12.025 7.42053C11.9333 7.54553 11.8583 7.69553 11.7833 7.8372C11.6917 8.02053 11.6083 8.17886 11.5583 8.3372C11.5083 8.49553 11.4833 8.67053 11.45 8.8372C11.45 8.8622 11.4667 8.9372 11.475 8.9872C11.5 9.10386 11.5167 9.22886 11.5167 9.34553C11.5167 9.4622 11.5 9.57886 11.475 9.69553C11.4667 9.74553 11.45 9.82886 11.45 9.85386C11.45 9.8622 11.4917 9.92053 11.5167 9.9622C11.575 10.0539 11.6417 10.1705 11.6917 10.3122C11.7417 10.4705 11.8 10.6205 11.8833 10.7622C11.925 10.8455 11.9583 10.9372 11.9917 11.0205C12.025 11.1039 12.0583 11.1789 12.0833 11.2205C12.1833 11.3622 12.2833 11.4955 12.4 11.6122C12.4583 11.6705 12.5167 11.7372 12.575 11.8039C12.6417 11.8789 12.7 11.9539 12.75 11.9872C12.7917 12.0205 12.875 12.0539 12.9583 12.0789C13.05 12.1122 13.1333 12.1455 13.2167 12.1955C13.3667 12.2705 13.525 12.3289 13.6833 12.3872C13.775 12.4122 13.8583 12.4539 13.95 12.4955C14.0333 12.5289 14.1167 12.5705 14.1667 12.5789C14.1833 12.5789 14.2583 12.5622 14.3083 12.5539C14.4917 12.5122 14.7583 12.4955 15.0167 12.5372C15.075 12.5455 15.1667 12.5622 15.1917 12.5539C15.2417 12.5539 15.325 12.5122 15.4083 12.4705C15.4917 12.4372 15.5833 12.3955 15.6667 12.3705C15.7333 12.3455 15.8 12.3289 15.875 12.3122C15.9833 12.2789 16.0833 12.2539 16.15 12.2205C16.275 12.1539 16.3833 12.0705 16.5 11.9872L16.575 11.9372C16.65 11.8789 16.7417 11.8289 16.825 11.7789C16.9 11.7372 16.975 11.6955 17.0083 11.6622C17.0083 11.6622 17.0333 11.5955 17.05 11.5539C17.0917 11.4455 17.1417 11.3205 17.2333 11.1872C17.3167 11.0705 17.4167 10.9789 17.5 10.9122C17.5333 10.8789 17.5917 10.8372 17.6 10.8122C17.6167 10.7705 17.6417 10.6789 17.6583 10.5955C17.675 10.5039 17.7 10.4122 17.725 10.3289C17.775 10.1705 17.825 10.0122 17.85 9.84553C17.8667 9.74553 17.8917 9.64553 17.925 9.54553C17.95 9.47053 17.975 9.3872 17.975 9.34553C17.975 9.32053 17.9417 9.24553 17.925 9.19553C17.8833 9.07886 17.8417 8.9622 17.825 8.84553C17.8 8.7122 17.7583 8.5872 17.7167 8.4622L17.6833 8.3622C17.6333 8.20386 17.575 8.05386 17.5 7.90386L17.4167 7.72053C17.375 7.62886 17.3333 7.5372 17.275 7.45386C17.1583 7.29553 17.075 7.17053 16.9583 7.0622C16.9 7.00386 16.8417 6.9372 16.7833 6.87053C16.7167 6.79553 16.6583 6.72053 16.6083 6.6872C16.5917 6.6872 16.525 6.6622 16.475 6.64553C16.375 6.62053 16.2417 6.5872 16.1167 6.52053C16.0167 6.47053 15.925 6.40386 15.8417 6.34553C15.7917 6.3122 15.7167 6.25386 15.6917 6.24553C15.6667 6.24553 15.5833 6.24553 15.525 6.24553C15.4083 6.24553 15.2917 6.24553 15.1833 6.22886C15.0833 6.2122 14.9833 6.1872 14.875 6.15386C14.8083 6.12886 14.725 6.10386 14.6833 6.10386H14.675Z" fill="#031F39"></path></g></svg> 