<svg width="48" height="48" viewBox="0 0 48 48" fill="none" xmlns="http://www.w3.org/2000/svg">
<g clip-path="url(#clip0_1433_101220)">
<path fill-rule="evenodd" clip-rule="evenodd" d="M24.0077 23.9436C22.4003 25.551 22.4003 28.1571 24.0077 29.7645L31.7689 37.5257C33.3763 39.1331 35.9824 39.1331 37.5898 37.5257L37.5926 37.5228C39.2 35.9154 39.2 33.3093 37.5926 31.7019L29.8314 23.9407C28.224 22.3333 25.6179 22.3333 24.0105 23.9407L24.0077 23.9436ZM20.3025 33.4697C16.6487 29.8159 16.6487 23.8921 20.3025 20.2383L20.3053 20.2355C23.959 16.5817 29.8829 16.5817 33.5367 20.2355L41.2979 27.9967C44.9516 31.6504 44.9516 37.5743 41.2979 41.2281L41.295 41.2309C37.6413 44.8846 31.7174 44.8846 28.0637 41.2309L20.3025 33.4697Z" fill="#FA6E79"/>
<path fill-rule="evenodd" clip-rule="evenodd" d="M10.3209 10.3239C8.71353 11.9313 8.71353 14.5374 10.3209 16.1448L18.0821 23.906C19.6895 25.5134 22.2956 25.5134 23.903 23.906L23.9059 23.9032C25.5133 22.2958 25.5133 19.6897 23.9059 18.0823L16.1447 10.3211C14.5373 8.7137 11.9312 8.7137 10.3238 10.3211L10.3209 10.3239ZM6.61569 19.8501C2.96195 16.1963 2.96195 10.2724 6.61569 6.61868L6.61852 6.61586C10.2723 2.96211 16.1962 2.96211 19.8499 6.61586L27.6111 14.3771C31.2648 18.0308 31.2649 23.9547 27.6111 27.6084L27.6083 27.6113C23.9545 31.265 18.0306 31.265 14.3769 27.6113L6.61569 19.8501Z" fill="#FFCDD7"/>
<path fill-rule="evenodd" clip-rule="evenodd" d="M24.0084 23.9252C23.626 24.3074 23.3227 24.7612 23.1157 25.2607C22.9088 25.7602 22.8023 26.2956 22.8023 26.8362C22.8023 27.3769 22.9088 27.9122 23.1157 28.4117C23.3227 28.9112 23.626 29.365 24.0084 29.7472L24.0106 29.7495L31.7669 37.5218C31.7675 37.5224 31.7681 37.523 31.7687 37.5236C32.5417 38.2941 33.5886 38.7268 34.6801 38.7268C35.7718 38.7268 36.819 38.2939 37.592 37.5231C37.9744 37.1406 38.2777 36.6866 38.4847 36.1869C38.6917 35.687 38.7983 35.1513 38.7983 34.6102C38.7983 34.0692 38.6917 33.5334 38.4847 33.0335C38.2776 32.5336 37.9741 32.0795 37.5915 31.6969L41.2967 27.9916C42.1659 28.8607 42.8554 29.8926 43.3258 31.0282C43.7962 32.1638 44.0383 33.381 44.0383 34.6102C44.0383 35.8394 43.7962 37.0566 43.3258 38.1922C42.8554 39.3279 42.1659 40.3597 41.2967 41.2289L39.4441 39.3762L41.2949 41.2307C39.5393 42.9828 37.1604 43.9668 34.6801 43.9668C32.1998 43.9668 29.8209 42.9828 28.0653 41.2307L28.0616 41.2269L20.3039 33.4532C20.3034 33.4527 20.3029 33.4522 20.3024 33.4518C19.4339 32.5832 18.7449 31.5522 18.2748 30.4174C17.8044 29.2821 17.5623 28.0652 17.5623 26.8362C17.5623 25.6073 17.8044 24.3903 18.2748 23.255C18.7452 22.1196 19.4347 21.0881 20.3039 20.2192L24.0084 23.9252Z" fill="#FA6E79"/>
<path opacity="0.85" d="M8.5089 33.5999C8.48044 32.6433 8.07386 31.7371 7.37846 31.0803C6.68305 30.4236 5.75569 30.07 4.80005 30.0972V30.0972C5.27184 30.0841 5.73644 29.978 6.16727 29.7851C6.59811 29.5922 6.98674 29.3161 7.31096 28.9728C7.63518 28.6294 7.88863 28.2255 8.05682 27.784C8.22501 27.3425 8.30466 26.8722 8.29119 26.3999C8.30527 26.8732 8.4124 27.3392 8.60645 27.771C8.8005 28.2029 9.07767 28.5922 9.42211 28.9168C9.76656 29.2414 10.1715 29.4948 10.6139 29.6626C11.0562 29.8305 11.5272 29.9093 12 29.8948C11.0465 29.9233 10.1433 30.3295 9.48867 31.0242C8.83408 31.7189 8.48169 32.6453 8.5089 33.5999V33.5999Z" fill="#FEC525"/>
<path opacity="0.85" d="M20.9117 36.8595L20.903 36.8514C20.0029 36.0028 18.5853 36.0446 17.7368 36.9448L17.7286 36.9534C16.8801 37.8535 16.9219 39.2711 17.8221 40.1197L17.8307 40.1278C18.7308 40.9763 20.1484 40.9345 20.9969 40.0344L21.0051 40.0258C21.8536 39.1256 21.8118 37.708 20.9117 36.8595Z" fill="#FEC525"/>
<path d="M39.547 6.13395C39.1428 9.75078 38.1938 13.2777 36.7351 16.5836C36.6931 16.6662 36.6252 16.7312 36.5428 16.7677C36.4605 16.8042 36.3687 16.8101 36.2827 16.7842C36.1968 16.7584 36.1219 16.7024 36.0706 16.6257C36.0193 16.549 35.9947 16.4562 36.0009 16.3628C36.4071 12.7474 37.3533 9.22119 38.805 5.91318C38.8329 5.80476 38.9009 5.7124 38.9939 5.65643C39.0869 5.60046 39.1974 5.58546 39.3009 5.61474C39.4045 5.64401 39.4927 5.71516 39.5462 5.81253C39.5997 5.90991 39.614 6.02552 39.586 6.13395H39.547Z" fill="#FEC525"/>
<path d="M42.7678 13.1997C39.1158 12.7501 35.5543 11.6803 32.2176 10.0305C32.1351 9.98316 32.0701 9.90722 32.0333 9.81517C31.9964 9.72312 31.99 9.62042 32.0149 9.52392C32.0399 9.42742 32.0948 9.34287 32.1706 9.28413C32.2464 9.2254 32.3387 9.19597 32.4322 9.20069C36.0834 9.65455 39.6443 10.7242 42.9824 12.3699C43.0649 12.4172 43.1299 12.4932 43.1667 12.5852C43.2036 12.6773 43.21 12.78 43.1851 12.8765C43.1601 12.973 43.1052 13.0575 43.0294 13.1163C42.9536 13.175 42.8613 13.2044 42.7678 13.1997Z" fill="#FEC525"/>
<path fill-rule="evenodd" clip-rule="evenodd" d="M24.2825 23.6568C24.4389 23.8128 24.4393 24.0661 24.2833 24.2225C23.5872 24.9206 23.1962 25.8662 23.1962 26.852C23.1962 27.8378 23.5871 28.7833 24.283 29.4813C24.2831 29.4814 24.2829 29.4813 24.283 29.4813L32.0507 37.237C32.207 37.3931 32.2072 37.6463 32.0511 37.8027C31.895 37.959 31.6417 37.9592 31.4854 37.8031L23.7168 30.0465C22.8711 29.1984 22.3962 28.0497 22.3962 26.852C22.3962 25.6544 22.8711 24.5056 23.7168 23.6576C23.8728 23.5012 24.126 23.5008 24.2825 23.6568Z" fill="#1B294B"/>
<path fill-rule="evenodd" clip-rule="evenodd" d="M15.9387 4.72502C14.5369 4.29645 13.0513 4.21806 11.6121 4.49673C11.3952 4.53873 11.1853 4.39695 11.1434 4.18007C11.1014 3.96318 11.2431 3.75332 11.46 3.71132C13.0276 3.40779 14.6457 3.49317 16.1726 3.95998C17.6996 4.42678 19.0888 5.26079 20.2187 6.38897L20.2188 6.38904L24.2828 10.449C24.4391 10.6052 24.4392 10.8584 24.283 11.0147C24.1269 11.171 23.8736 11.1711 23.7174 11.015L19.6534 6.95508C19.6534 6.95506 19.6534 6.95503 19.6534 6.95501C18.616 5.91926 17.3406 5.15359 15.9387 4.72502Z" fill="#1B294B"/>
</g>
<defs>
<clipPath id="clip0_1433_101220">
<rect width="48" height="48" fill="white"/>
</clipPath>
</defs>
</svg>
