<svg width="48" height="48" viewBox="0 0 48 48" fill="none" xmlns="http://www.w3.org/2000/svg">
<path d="M40.8039 3.99219H7.20391C5.43659 3.99219 4.00391 5.42488 4.00391 7.19219V40.7922C4.00391 42.5595 5.43659 43.9922 7.20391 43.9922H40.8039C42.5712 43.9922 44.0039 42.5595 44.0039 40.7922V7.19219C44.0039 5.42488 42.5712 3.99219 40.8039 3.99219Z" fill="#80DBFF"/>
<path d="M40.1801 6.21191H7.82412C6.94047 6.21191 6.22412 6.92826 6.22412 7.81191V40.1679C6.22412 41.0516 6.94047 41.7679 7.82412 41.7679H40.1801C41.0638 41.7679 41.7801 41.0516 41.7801 40.1679V7.81191C41.7801 6.92826 41.0638 6.21191 40.1801 6.21191Z" fill="white"/>
<path d="M14.5199 9.76807H10.1199C10.0311 9.7691 9.94628 9.80484 9.8835 9.86763C9.82071 9.93042 9.78497 10.0153 9.78394 10.1041V16.5401C9.78393 16.6296 9.8192 16.7154 9.8821 16.7791C9.945 16.8427 10.0305 16.879 10.1199 16.8801H16.5519C16.5966 16.8801 16.6408 16.8713 16.682 16.8542C16.7233 16.8371 16.7608 16.8121 16.7924 16.7805C16.8239 16.7489 16.849 16.7114 16.8661 16.6702C16.8831 16.6289 16.8919 16.5847 16.8919 16.5401V10.1041C16.8909 10.0146 16.8546 9.92913 16.7909 9.86623C16.7273 9.80333 16.6414 9.76806 16.5519 9.76807H14.5199ZM14.1839 14.5081H12.4879C12.3988 14.5081 12.3134 14.4727 12.2503 14.4097C12.1873 14.3466 12.1519 14.2612 12.1519 14.1721V12.4761C12.1514 12.4318 12.1597 12.3879 12.1764 12.3469C12.1931 12.3058 12.2178 12.2686 12.2492 12.2373C12.2805 12.206 12.3177 12.1812 12.3587 12.1645C12.3997 12.1479 12.4437 12.1395 12.4879 12.1401H14.1839C14.2281 12.1401 14.2718 12.1488 14.3125 12.1656C14.3533 12.1825 14.3903 12.2073 14.4215 12.2385C14.4527 12.2697 14.4775 12.3067 14.4944 12.3475C14.5112 12.3883 14.5199 12.4319 14.5199 12.4761V14.1721C14.5189 14.2609 14.4832 14.3457 14.4204 14.4085C14.3576 14.4713 14.2727 14.507 14.1839 14.5081V14.5081Z" fill="#FA6E79"/>
<path d="M35.856 9.76807H31.456C31.3665 9.76806 31.2806 9.80333 31.217 9.86623C31.1533 9.92913 31.117 10.0146 31.116 10.1041V16.5401C31.116 16.6302 31.1518 16.7167 31.2155 16.7805C31.2793 16.8442 31.3658 16.8801 31.456 16.8801H37.888C37.9774 16.879 38.0629 16.8427 38.1258 16.7791C38.1887 16.7154 38.224 16.6296 38.224 16.5401V10.1041C38.2229 10.0153 38.1872 9.93042 38.1244 9.86763C38.0616 9.80484 37.9768 9.7691 37.888 9.76807H35.856ZM35.516 14.5081H33.82C33.7312 14.507 33.6463 14.4713 33.5835 14.4085C33.5207 14.3457 33.485 14.2609 33.484 14.1721V12.4761C33.484 12.387 33.5194 12.3015 33.5824 12.2385C33.6454 12.1755 33.7309 12.1401 33.82 12.1401H35.516C35.5604 12.1395 35.6045 12.1478 35.6458 12.1645C35.687 12.1811 35.7245 12.2058 35.7561 12.2371C35.7878 12.2683 35.8129 12.3055 35.83 12.3466C35.8471 12.3876 35.856 12.4316 35.856 12.4761V14.1721C35.8549 14.2615 35.8186 14.347 35.755 14.4099C35.6913 14.4728 35.6055 14.5081 35.516 14.5081V14.5081Z" fill="#FA6E79"/>
<path d="M14.5199 31.1001H10.1199C10.0305 31.1012 9.945 31.1374 9.8821 31.2011C9.8192 31.2647 9.78393 31.3506 9.78394 31.4401V37.8761C9.78497 37.9649 9.82071 38.0497 9.8835 38.1125C9.94628 38.1753 10.0311 38.2111 10.1199 38.2121H16.5519C16.6414 38.2121 16.7273 38.1768 16.7909 38.1139C16.8546 38.051 16.8909 37.9656 16.8919 37.8761V31.4401C16.8919 31.3499 16.8561 31.2634 16.7924 31.1997C16.7286 31.1359 16.6421 31.1001 16.5519 31.1001H14.5199ZM14.1839 35.8401H12.4879C12.4437 35.8406 12.3997 35.8323 12.3587 35.8156C12.3177 35.7989 12.2805 35.7742 12.2492 35.7429C12.2178 35.7116 12.1931 35.6743 12.1764 35.6333C12.1597 35.5923 12.1514 35.5484 12.1519 35.5041V33.8081C12.1519 33.719 12.1873 33.6335 12.2503 33.5705C12.3134 33.5075 12.3988 33.4721 12.4879 33.4721H14.1839C14.2727 33.4731 14.3576 33.5089 14.4204 33.5717C14.4832 33.6344 14.5189 33.7193 14.5199 33.8081V35.5041C14.5199 35.5482 14.5112 35.5919 14.4944 35.6327C14.4775 35.6734 14.4527 35.7105 14.4215 35.7417C14.3903 35.7729 14.3533 35.7976 14.3125 35.8145C14.2718 35.8314 14.2281 35.8401 14.1839 35.8401Z" fill="#FA6E79"/>
<path d="M24 14.9641V16.4241C24 16.5443 24.0475 16.6597 24.1322 16.7451C24.2168 16.8305 24.3318 16.879 24.452 16.8801H25.912C26.0329 16.8801 26.1489 16.832 26.2345 16.7465C26.32 16.661 26.368 16.545 26.368 16.4241V12.5921C26.368 12.5324 26.3798 12.4733 26.4028 12.4182C26.4258 12.3631 26.4594 12.3131 26.5018 12.271C26.5442 12.229 26.5945 12.1958 26.6498 12.1733C26.7051 12.1508 26.7643 12.1395 26.824 12.1401H28.284C28.3439 12.1401 28.4032 12.1283 28.4585 12.1054C28.5138 12.0824 28.5641 12.0489 28.6064 12.0065C28.6488 11.9642 28.6824 11.9139 28.7053 11.8586C28.7282 11.8032 28.74 11.7439 28.74 11.6841V10.2241C28.74 10.1642 28.7282 10.1049 28.7053 10.0496C28.6824 9.99424 28.6488 9.94397 28.6064 9.90163C28.5641 9.85928 28.5138 9.82569 28.4585 9.80278C28.4032 9.77986 28.3439 9.76807 28.284 9.76807H24.456C24.3351 9.76807 24.2191 9.81611 24.1336 9.90163C24.0481 9.98714 24 10.1031 24 10.2241V11.6841C24 11.805 23.952 11.921 23.8665 12.0065C23.7809 12.092 23.6649 12.1401 23.544 12.1401H22.088C21.9671 12.1401 21.8511 12.092 21.7656 12.0065C21.6801 11.921 21.632 11.805 21.632 11.6841V10.2241C21.632 10.1031 21.584 9.98714 21.4984 9.90163C21.4129 9.81611 21.2969 9.76807 21.176 9.76807H19.716C19.5951 9.76807 19.4791 9.81611 19.3936 9.90163C19.3081 9.98714 19.26 10.1031 19.26 10.2241V16.4241C19.26 16.545 19.3081 16.661 19.3936 16.7465C19.4791 16.832 19.5951 16.8801 19.716 16.8801H21.176C21.2969 16.8801 21.4129 16.832 21.4984 16.7465C21.584 16.661 21.632 16.545 21.632 16.4241V14.9641C21.632 14.8431 21.6801 14.7271 21.7656 14.6416C21.8511 14.5561 21.9671 14.5081 22.088 14.5081H23.548C23.6683 14.5091 23.7832 14.5576 23.8679 14.643C23.9525 14.7284 24 14.8438 24 14.9641V14.9641Z" fill="#00BFFF"/>
<path d="M11.696 19.248H10.236C9.98419 19.248 9.78003 19.4522 9.78003 19.704V21.164C9.78003 21.4159 9.98419 21.62 10.236 21.62H11.696C11.9479 21.62 12.152 21.4159 12.152 21.164V19.704C12.152 19.4522 11.9479 19.248 11.696 19.248Z" fill="#00BFFF"/>
<path d="M16.436 19.248H14.976C14.7242 19.248 14.52 19.4522 14.52 19.704V21.164C14.52 21.4159 14.7242 21.62 14.976 21.62H16.436C16.6879 21.62 16.892 21.4159 16.892 21.164V19.704C16.892 19.4522 16.6879 19.248 16.436 19.248Z" fill="#00BFFF"/>
<path d="M23.548 21.6199C23.6683 21.6188 23.7832 21.5703 23.8679 21.4849C23.9525 21.3995 24 21.2841 24 21.1639V17.3319C23.999 17.2116 23.9504 17.0967 23.865 17.012C23.7796 16.9274 23.6643 16.8799 23.544 16.8799H22.088C21.9678 16.8799 21.8524 16.9274 21.767 17.012C21.6816 17.0967 21.6331 17.2116 21.632 17.3319V18.7999C21.631 18.9201 21.5824 19.0351 21.497 19.1197C21.4116 19.2044 21.2963 19.2519 21.176 19.2519H19.716C19.5951 19.2519 19.4791 19.2999 19.3936 19.3854C19.3081 19.471 19.26 19.5869 19.26 19.7079V21.1679C19.26 21.2888 19.3081 21.4048 19.3936 21.4903C19.4791 21.5758 19.5951 21.6239 19.716 21.6239H23.548V21.6199Z" fill="#00BFFF"/>
<path d="M26.3721 21.1639C26.3721 21.2848 26.4201 21.4008 26.5056 21.4863C26.5911 21.5718 26.7071 21.6199 26.8281 21.6199H30.6601C30.7803 21.6209 30.8953 21.6694 30.9799 21.7548C31.0646 21.8402 31.1121 21.9556 31.1121 22.0759V23.5359C31.111 23.5964 31.122 23.6566 31.1445 23.7128C31.1669 23.7691 31.2003 23.8203 31.2428 23.8635C31.2852 23.9067 31.3358 23.941 31.3917 23.9644C31.4476 23.9878 31.5075 23.9999 31.5681 23.9999H33.0281C33.149 23.9999 33.265 23.9518 33.3505 23.8663C33.436 23.7808 33.4841 23.6648 33.4841 23.5439V19.7039C33.4841 19.5829 33.436 19.467 33.3505 19.3814C33.265 19.2959 33.149 19.2479 33.0281 19.2479H29.2001C29.0805 19.2479 28.9657 19.201 28.8804 19.1172C28.7951 19.0334 28.7462 18.9194 28.7441 18.7999V17.3319C28.743 17.2116 28.6945 17.0967 28.6091 17.012C28.5237 16.9274 28.4083 16.8799 28.2881 16.8799H26.8281C26.7078 16.8799 26.5924 16.9274 26.507 17.012C26.4216 17.0967 26.3731 17.2116 26.3721 17.3319V21.1639V21.1639Z" fill="#00BFFF"/>
<path d="M36.3081 19.248C36.2484 19.248 36.1893 19.2599 36.1342 19.2828C36.0791 19.3058 36.0291 19.3394 35.9871 19.3818C35.9451 19.4242 35.9118 19.4745 35.8894 19.5298C35.8669 19.5851 35.8556 19.6444 35.8561 19.704V23.536C35.8545 23.5964 35.865 23.6565 35.887 23.7127C35.909 23.7689 35.9421 23.8202 35.9842 23.8634C36.0263 23.9067 36.0767 23.9411 36.1323 23.9645C36.188 23.988 36.2477 24.0001 36.3081 24H37.7681C37.8891 24 38.005 23.952 38.0906 23.8665C38.1761 23.781 38.2241 23.665 38.2241 23.544V19.704C38.2241 19.5831 38.1761 19.4671 38.0906 19.3816C38.005 19.2961 37.8891 19.248 37.7681 19.248H36.3081Z" fill="#00BFFF"/>
<path d="M25.9199 21.6201H24.4599C24.2081 21.6201 24.0039 21.8243 24.0039 22.0761V23.5361C24.0039 23.788 24.2081 23.9921 24.4599 23.9921H25.9199C26.1718 23.9921 26.3759 23.788 26.3759 23.5361V22.0761C26.3759 21.8243 26.1718 21.6201 25.9199 21.6201Z" fill="#00BFFF"/>
<path d="M14.52 24.444C14.5179 24.3248 14.4688 24.2113 14.3834 24.1282C14.298 24.045 14.1832 23.9989 14.064 24H10.236C10.1763 23.9995 10.1171 24.0108 10.0618 24.0333C10.0065 24.0557 9.95622 24.089 9.91383 24.131C9.87143 24.173 9.83778 24.223 9.81481 24.2781C9.79185 24.3332 9.78003 24.3923 9.78003 24.452V25.912C9.78003 26.033 9.82807 26.1489 9.91359 26.2345C9.9991 26.32 10.1151 26.368 10.236 26.368H11.696C11.8129 26.3679 11.9254 26.4126 12.0103 26.493C12.0951 26.5734 12.1459 26.6833 12.152 26.8V28.26C12.152 28.3803 12.1995 28.4956 12.2842 28.5811C12.3688 28.6665 12.4838 28.715 12.604 28.716H16.436C16.4959 28.716 16.5552 28.7042 16.6105 28.6813C16.6659 28.6584 16.7161 28.6248 16.7585 28.5825C16.8008 28.5401 16.8344 28.4898 16.8573 28.4345C16.8802 28.3792 16.892 28.3199 16.892 28.26V26.8C16.892 26.6791 16.844 26.5631 16.7585 26.4776C16.673 26.3921 16.557 26.344 16.436 26.344H14.976C14.8551 26.344 14.7391 26.296 14.6536 26.2105C14.5681 26.1249 14.52 26.009 14.52 25.888V24.444Z" fill="#00BFFF"/>
<path d="M21.6321 24.0001H19.7161C19.5952 24.0001 19.4792 23.9521 19.3936 23.8666C19.3081 23.7811 19.2601 23.6651 19.2601 23.5441V22.0761C19.2601 22.0159 19.2482 21.9563 19.225 21.9007C19.2018 21.8451 19.1679 21.7947 19.1251 21.7523C19.0824 21.7099 19.0316 21.6764 18.9758 21.6537C18.92 21.631 18.8603 21.6196 18.8001 21.6201H17.3481C17.2882 21.6201 17.2289 21.6319 17.1736 21.6548C17.1183 21.6778 17.068 21.7114 17.0257 21.7537C16.9833 21.796 16.9497 21.8463 16.9268 21.9016C16.9039 21.957 16.8921 22.0163 16.8921 22.0761V25.9041C16.8921 26.0251 16.9401 26.1411 17.0257 26.2266C17.1112 26.3121 17.2272 26.3601 17.3481 26.3601H23.5481C23.6683 26.3591 23.7833 26.3106 23.8679 26.2252C23.9526 26.1398 24.0001 26.0244 24.0001 25.9041V24.4441C23.998 24.3256 23.9494 24.2127 23.8649 24.1297C23.7804 24.0466 23.6666 24.0001 23.5481 24.0001H21.6321Z" fill="#00BFFF"/>
<path d="M30.6599 23.9922H29.1999C28.9481 23.9922 28.7439 24.1963 28.7439 24.4482V25.9082C28.7439 26.16 28.9481 26.3642 29.1999 26.3642H30.6599C30.9117 26.3642 31.1159 26.16 31.1159 25.9082V24.4482C31.1159 24.1963 30.9117 23.9922 30.6599 23.9922Z" fill="#00BFFF"/>
<path d="M33.484 26.8002V28.2602C33.484 28.3201 33.4722 28.3794 33.4493 28.4347C33.4264 28.4901 33.3928 28.5403 33.3504 28.5827C33.3081 28.625 33.2578 28.6586 33.2025 28.6815C33.1472 28.7044 33.0879 28.7162 33.028 28.7162H29.2C29.1401 28.7162 29.0808 28.7044 29.0255 28.6815C28.9702 28.6586 28.9199 28.625 28.8776 28.5827C28.8352 28.5403 28.8016 28.4901 28.7787 28.4347C28.7558 28.3794 28.744 28.3201 28.744 28.2602V26.8002C28.744 26.6793 28.696 26.5633 28.6104 26.4778C28.5249 26.3923 28.4089 26.3442 28.288 26.3442H24.456C24.3351 26.3442 24.2191 26.3923 24.1336 26.4778C24.048 26.5633 24 26.6793 24 26.8002V28.2602C24 28.3805 24.0475 28.4959 24.1321 28.5813C24.2168 28.6667 24.3318 28.7152 24.452 28.7162H25.912C25.9746 28.7156 26.0368 28.7278 26.0945 28.7522C26.1522 28.7766 26.2042 28.8127 26.2474 28.8581C26.2906 28.9035 26.3239 28.9573 26.3453 29.0162C26.3668 29.075 26.3759 29.1377 26.372 29.2002V30.6642C26.3731 30.7845 26.4216 30.8994 26.507 30.9841C26.5924 31.0688 26.7078 31.1162 26.828 31.1162H28.288C28.4089 31.1162 28.5249 31.1643 28.6104 31.2498C28.696 31.3353 28.744 31.4513 28.744 31.5722V33.0322C28.744 33.1532 28.696 33.2692 28.6104 33.3547C28.5249 33.4402 28.4089 33.4882 28.288 33.4882H26.828C26.7071 33.4882 26.5911 33.5363 26.5056 33.6218C26.42 33.7073 26.372 33.8233 26.372 33.9442V35.4042C26.372 35.4639 26.3838 35.523 26.4068 35.5781C26.4297 35.6332 26.4634 35.6832 26.5058 35.7253C26.5482 35.7673 26.5985 35.8005 26.6538 35.823C26.7091 35.8455 26.7683 35.8568 26.828 35.8562H28.288C28.4089 35.8562 28.5249 35.9043 28.6104 35.9898C28.696 36.0753 28.744 36.1913 28.744 36.3122V37.7722C28.7481 37.8904 28.798 38.0023 28.8831 38.0844C28.9682 38.1665 29.0818 38.2123 29.2 38.2122H30.66C30.7802 38.2112 30.8952 38.1627 30.9799 38.0773C31.0645 37.9919 31.112 37.8765 31.112 37.7562V36.2962C31.112 36.1753 31.16 36.0593 31.2456 35.9738C31.3311 35.8883 31.4471 35.8402 31.568 35.8402H35.4C35.5209 35.8402 35.6369 35.8883 35.7224 35.9738C35.808 36.0593 35.856 36.1753 35.856 36.2962V37.7562C35.8555 37.8159 35.8668 37.8751 35.8893 37.9304C35.9117 37.9857 35.9449 38.036 35.987 38.0784C36.029 38.1208 36.079 38.1545 36.1341 38.1775C36.1892 38.2004 36.2483 38.2122 36.308 38.2122H37.768C37.8889 38.2122 38.0049 38.1642 38.0904 38.0787C38.176 37.9932 38.224 37.8772 38.224 37.7562V33.9282C38.224 33.8073 38.176 33.6913 38.0904 33.6058C38.0049 33.5203 37.8889 33.4722 37.768 33.4722H36.308C36.2483 33.4722 36.1892 33.4604 36.1341 33.4375C36.079 33.4145 36.029 33.3808 35.987 33.3384C35.9449 33.296 35.9117 33.2457 35.8893 33.1904C35.8668 33.1351 35.8555 33.0759 35.856 33.0162V29.2002C35.856 29.0804 35.9036 28.9654 35.9884 28.8806C36.0732 28.7959 36.1881 28.7482 36.308 28.7482H37.768C37.8889 28.7482 38.0049 28.7002 38.0904 28.6147C38.176 28.5292 38.224 28.4132 38.224 28.2922V26.8002C38.224 26.6793 38.176 26.5633 38.0904 26.4778C38.0049 26.3923 37.8889 26.3442 37.768 26.3442H33.94C33.8191 26.3442 33.7031 26.3923 33.6176 26.4778C33.532 26.5633 33.484 26.6793 33.484 26.8002ZM33.028 33.4722H31.568C31.4471 33.4722 31.3311 33.4242 31.2456 33.3387C31.16 33.2532 31.112 33.1372 31.112 33.0162V31.5562C31.112 31.4353 31.16 31.3193 31.2456 31.2338C31.3311 31.1483 31.4471 31.1002 31.568 31.1002H33.028C33.1489 31.1002 33.2649 31.1483 33.3504 31.2338C33.436 31.3193 33.484 31.4353 33.484 31.5562V33.0162C33.484 33.1372 33.436 33.2532 33.3504 33.3387C33.2649 33.4242 33.1489 33.4722 33.028 33.4722Z" fill="#00BFFF"/>
<path d="M19.26 31.1V33.016C19.26 33.137 19.3081 33.253 19.3936 33.3385C19.4791 33.424 19.5951 33.472 19.716 33.472H21.176C21.2969 33.472 21.4129 33.424 21.4984 33.3385C21.584 33.253 21.632 33.137 21.632 33.016V29.2C21.631 29.0798 21.5824 28.9648 21.497 28.8802C21.4116 28.7955 21.2963 28.748 21.176 28.748H19.716C19.5958 28.748 19.4804 28.7955 19.395 28.8802C19.3096 28.9648 19.2611 29.0798 19.26 29.2V31.1Z" fill="#00BFFF"/>
<path d="M25.9199 31.1001H24.4599C24.2081 31.1001 24.0039 31.3043 24.0039 31.5561V33.0161C24.0039 33.2679 24.2081 33.4721 24.4599 33.4721H25.9199C26.1718 33.4721 26.3759 33.2679 26.3759 33.0161V31.5561C26.3759 31.3043 26.1718 31.1001 25.9199 31.1001Z" fill="#00BFFF"/>
<path d="M21.176 35.8398H19.716C19.4642 35.8398 19.26 36.044 19.26 36.2958V37.7558C19.26 38.0077 19.4642 38.2118 19.716 38.2118H21.176C21.4279 38.2118 21.632 38.0077 21.632 37.7558V36.2958C21.632 36.044 21.4279 35.8398 21.176 35.8398Z" fill="#00BFFF"/>
<path d="M25.9199 35.8398H24.4599C24.2081 35.8398 24.0039 36.044 24.0039 36.2958V37.7558C24.0039 38.0077 24.2081 38.2118 24.4599 38.2118H25.9199C26.1718 38.2118 26.3759 38.0077 26.3759 37.7558V36.2958C26.3759 36.044 26.1718 35.8398 25.9199 35.8398Z" fill="#00BFFF"/>
</svg>
