<svg width="16" height="16" viewBox="0 0 16 16" fill="none" xmlns="http://www.w3.org/2000/svg">
<g id="checkmark">
<path id="vector" d="M6.13777 13.75C6.03914 13.75 5.94148 13.7306 5.85036 13.6928C5.75924 13.6551 5.67647 13.5997 5.60677 13.5298L1.22677 9.14595C1.15562 9.07652 1.09894 8.99366 1.06001 8.90215C1.02109 8.81064 1.0007 8.71231 1.00002 8.61286C0.999338 8.5134 1.01838 8.4148 1.05605 8.32277C1.09372 8.23074 1.14927 8.1471 1.21946 8.07671C1.28966 8.00632 1.37312 7.95057 1.465 7.91269C1.55688 7.87482 1.65536 7.85557 1.75472 7.85606C1.85409 7.85655 1.95237 7.87678 2.04387 7.91557C2.13537 7.95435 2.21827 8.01093 2.28777 8.08201L6.07877 11.8764L13.6868 2.5041C13.8151 2.35871 13.9945 2.26859 14.1877 2.25257C14.3808 2.23655 14.5726 2.29588 14.7231 2.41815C14.8735 2.54042 14.9709 2.71617 14.9949 2.90864C15.0189 3.10112 14.9676 3.29543 14.8518 3.45093L6.71877 13.4708C6.65254 13.5525 6.5699 13.6194 6.47619 13.6672C6.38247 13.715 6.27979 13.7425 6.17477 13.748L6.13777 13.75Z" fill="#1974D2"/>
</g>
</svg>
