<svg xmlns="http://www.w3.org/2000/svg" xml:space="preserve" id="Layer_1" x="0" y="0" style="enable-background:new 0 0 24 24" version="1.1" viewBox="0 0 24 24">
  <style>
    .st0{fill:#fff}
  </style>
  <path d="M7.3 14.7V9.3c0-1.1.9-2.1 2.1-2.1h5.4c1.1 0 2.1.9 2.1 2.1v7.5H9.3c-1.1-.1-2-1-2-2.1z" class="st0"/>
  <path d="M16.5 3.4a4 4 0 0 1 4.1 4.1v13.1H7.5a4 4 0 0 1-4-4.2V7.5a4 4 0 0 1 4.1-4.1h8.9m0-3.4H7.6A7.6 7.6 0 0 0 0 7.5v8.9C0 20.6 3.4 24 7.5 24H24V7.5C24 3.4 20.6 0 16.5 0z" class="st0"/>
</svg>
